<svg xmlns="http://www.w3.org/2000/svg" viewBox="0 0 64 64" width="64" height="64" role="img" aria-label="Filey">
  <defs>
    <linearGradient id="fileyFront" x1="32" y1="24" x2="32" y2="54" gradientUnits="userSpaceOnUse">
      <stop offset="0" stop-color="#FFDD47"/>
      <stop offset="1" stop-color="#F5C400"/>
    </linearGradient>
  </defs>
  <!-- folder back + tab -->
  <path d="M9 18a5 5 0 0 1 5-5h11l4.5 5H50a5 5 0 0 1 5 5v24a5 5 0 0 1-5 5H14a5 5 0 0 1-5-5Z" fill="#E0AE00"/>
  <!-- white sheet peeking out -->
  <rect x="18" y="11" width="28" height="27" rx="3" fill="#FFFFFF" stroke="#F0E9D9" stroke-width="1"/>
  <!-- folder front pocket (the face) -->
  <path d="M7 30a5 5 0 0 1 5-5h40a5 5 0 0 1 5 5v17a5 5 0 0 1-5 5H12a5 5 0 0 1-5-5Z" fill="url(#fileyFront)" stroke="#E0AE00" stroke-width="1"/>
  <!-- eyes -->
  <ellipse cx="25.5" cy="38.5" rx="2.7" ry="3.5" fill="#222222"/>
  <ellipse cx="42.5" cy="38.5" rx="2.7" ry="3.5" fill="#222222"/>
  <circle cx="26.7" cy="37" r="0.85" fill="#D9D9D9"/>
  <circle cx="43.7" cy="37" r="0.85" fill="#D9D9D9"/>
  <!-- smile -->
  <path d="M25 45q9 7.5 18 0" fill="none" stroke="#222222" stroke-width="3.2" stroke-linecap="round"/>
</svg>
