<svg xmlns="http://www.w3.org/2000/svg" width="1024" height="1024" viewBox="0 0 1024 1024">
<g>
<path d="M 693.53 604.09 C687.94,606.56 677.12,607.20 671.06,605.41 C662.33,602.83 653.71,594.95 649.30,585.50 C646.70,579.93 646.50,578.60 646.50,567.00 C646.50,554.91 646.61,554.27 649.85,547.36 C653.73,539.07 658.28,534.27 666.00,530.32 C670.89,527.81 672.55,527.50 681.00,527.50 C691.77,527.51 695.04,528.74 703.14,535.88 C713.64,545.14 718.53,562.92 714.61,577.63 C711.26,590.20 703.83,599.53 693.53,604.09 ZM 484.32 603.71 C467.34,612.64 448.47,605.47 438.99,586.50 C435.55,579.60 435.50,579.31 435.54,567.00 C435.57,555.38 435.77,554.09 438.39,548.69 C442.44,540.33 450.11,532.86 457.50,530.07 C462.43,528.21 464.93,527.88 471.50,528.23 C480.81,528.72 483.60,529.95 491.36,537.04 C511.62,555.56 507.84,591.33 484.32,603.71 ZM 587.14 677.94 C581.45,678.52 576.05,678.94 575.14,678.87 C546.25,676.53 528.50,668.70 515.86,652.70 C512.34,648.25 512.00,647.28 512.00,641.76 C512.00,635.97 512.19,635.51 516.04,631.85 C519.51,628.55 520.73,628.00 524.61,628.00 C529.83,628.00 531.80,628.90 538.00,634.10 C543.31,638.55 553.49,643.77 560.50,645.64 C566.29,647.19 580.63,647.37 589.97,646.03 C597.75,644.90 607.98,640.00 617.00,633.07 C622.99,628.46 623.94,628.07 629.12,628.04 C633.23,628.01 635.40,628.53 637.24,629.97 C643.12,634.60 644.33,645.26 639.66,651.38 C636.24,655.86 625.47,665.23 620.63,667.94 C615.86,670.60 607.05,674.00 604.90,674.00 C604.03,674.00 602.00,674.65 600.40,675.44 C598.81,676.24 592.84,677.36 587.14,677.94 ZM 473.18 559.25 C476.24,561.87 482.15,561.52 485.37,558.53 C489.00,555.17 489.64,551.22 487.25,546.94 C485.50,543.81 484.87,543.47 480.17,543.17 C476.13,542.91 474.45,543.29 472.37,544.92 C470.92,546.06 470.07,547.00 470.49,547.00 C470.90,547.00 470.75,547.59 470.15,548.32 C468.64,550.14 470.53,556.99 473.18,559.25 ZM 686.66 560.29 C694.18,562.23 698.04,559.65 698.76,552.19 C699.09,548.71 698.88,547.00 698.13,547.00 C697.51,547.00 697.00,546.35 697.00,545.55 C697.00,544.66 695.53,543.80 693.25,543.35 C687.88,542.29 685.81,542.77 683.18,545.69 C679.09,550.24 681.15,558.87 686.66,560.29 Z" fill="rgb(14,11,9)"/>

<path d="M 473.18 559.25 C471.30,557.64 469.80,553.72 469.63,550.93 C469.74,550.98 469.87,551.00 470.00,551.00 C470.55,551.00 471.00,550.30 471.00,549.44 C471.00,548.60 470.57,548.18 470.03,548.48 C470.07,548.42 470.11,548.37 470.15,548.32 C470.75,547.59 470.90,547.00 470.49,547.00 C470.07,547.00 470.92,546.06 472.37,544.92 C474.45,543.29 476.13,542.91 480.17,543.17 C484.87,543.47 485.50,543.81 487.25,546.94 C487.65,547.65 487.96,548.35 488.19,549.05 C488.13,549.02 488.07,549.00 488.00,549.00 C487.45,549.00 487.00,550.12 487.00,551.50 C487.00,552.88 487.45,554.00 488.00,554.00 C488.15,554.00 488.30,553.91 488.43,553.76 C487.99,555.45 486.97,557.05 485.37,558.53 C482.15,561.52 476.24,561.87 473.18,559.25 ZM 686.66 560.29 C681.15,558.87 679.09,550.24 683.18,545.69 C685.81,542.77 687.88,542.29 693.25,543.35 C695.53,543.80 697.00,544.66 697.00,545.55 C697.00,546.35 697.51,547.00 698.13,547.00 C698.88,547.00 699.09,548.71 698.76,552.19 C698.04,559.65 694.18,562.23 686.66,560.29 Z" fill="rgb(136,124,119)"/>
<path d="M 703.50 815.08 C705.37,815.14 707.23,815.19 709.04,815.23 C698.88,815.25 683.42,815.25 659.25,815.26 C652.12,815.26 644.23,815.26 635.50,815.26 C611.21,815.26 573.46,815.29 532.95,815.32 C634.07,815.17 679.78,814.89 679.78,814.45 C679.78,814.45 679.78,814.45 679.78,814.44 C679.47,814.14 591.08,813.53 483.36,813.10 L 287.50 812.31 L 278.00 809.62 C249.64,801.59 226.68,783.33 213.73,758.50 C211.26,753.77 206.08,741.21 205.56,738.67 C205.42,738.03 205.04,736.38 204.71,735.00 C204.38,733.62 203.84,730.81 203.51,728.75 C202.72,723.81 201.23,724.03 201.03,728.62 C200.92,726.38 201.25,725.00 202.12,725.00 C202.94,725.00 202.93,724.62 202.09,723.60 C201.34,722.70 200.76,721.57 200.30,717.68 C200.56,718.82 200.81,719.82 200.99,720.50 C201.43,722.15 201.92,683.67 202.07,635.00 C202.21,587.62 202.50,550.27 202.72,550.27 C202.72,550.27 202.73,550.29 202.73,550.35 C203.10,553.89 203.24,554.05 204.53,552.35 C205.40,551.21 205.95,547.96 205.97,543.84 C206.00,537.43 206.09,537.19 208.37,537.44 L 210.74 537.70 L 211.47 521.60 C211.88,512.74 212.43,500.10 212.70,493.50 C212.96,486.90 213.47,476.10 213.82,469.50 L 214.47 457.50 L 215.23 469.50 C215.65,476.10 216.36,515.47 216.81,557.00 C217.52,623.10 217.82,632.94 219.23,636.00 C220.40,638.55 220.86,638.96 220.92,637.49 C220.96,636.39 222.12,633.37 223.50,630.79 C224.88,628.20 226.00,625.28 226.00,624.29 C226.00,623.30 227.18,620.27 228.61,617.57 C230.05,614.87 232.08,609.11 233.12,604.76 C234.15,600.42 235.84,594.76 236.86,592.18 C237.89,589.61 240.13,583.00 241.85,577.50 C243.56,572.00 246.37,563.22 248.08,558.00 C249.80,552.78 251.79,546.03 252.51,543.00 C253.23,539.97 254.74,534.92 255.86,531.76 C258.54,524.19 264.03,493.24 265.56,477.00 C265.85,473.98 266.31,470.75 266.58,469.84 C267.01,468.40 269.29,448.28 270.65,434.00 C270.88,431.52 271.97,420.05 273.07,408.50 C275.38,384.26 277.85,371.43 281.90,362.69 C285.28,355.38 289.36,349.73 290.51,350.76 C290.95,351.17 291.04,350.72 290.69,349.76 C290.23,348.47 293.02,345.03 301.43,336.51 C307.68,330.18 313.32,325.00 313.97,325.00 C314.61,325.00 311.38,328.71 306.77,333.25 C300.03,339.89 297.59,343.16 294.25,350.00 C292.95,352.68 291.87,354.86 290.99,357.11 C286.92,367.54 286.96,379.58 287.21,449.78 L 287.22 451.75 C287.37,494.24 287.14,529.00 286.71,529.00 C286.27,529.00 286.01,529.56 286.12,530.25 C286.46,532.29 284.86,537.00 283.83,537.00 C283.31,537.00 283.16,537.45 283.50,538.00 C283.84,538.55 283.66,539.00 283.09,539.00 C282.53,539.00 282.30,539.62 282.59,540.37 C282.88,541.13 282.41,542.45 281.54,543.32 C280.67,544.18 280.06,545.25 280.19,545.70 C280.60,547.17 277.86,554.00 276.86,554.00 C276.32,554.00 276.16,554.45 276.50,555.00 C276.84,555.55 276.66,556.00 276.09,556.00 C275.53,556.00 275.32,556.67 275.64,557.50 C275.95,558.33 275.75,559.00 275.18,559.00 C274.04,559.00 271.45,565.78 271.84,567.75 C271.98,568.44 271.59,569.00 270.98,569.00 C270.38,569.00 270.16,569.45 270.50,570.00 C270.84,570.55 270.61,571.00 270.00,571.00 C269.39,571.00 269.16,571.45 269.50,572.00 C269.84,572.55 269.61,573.00 269.00,573.00 C268.39,573.00 268.16,573.45 268.50,574.01 C268.85,574.56 268.42,575.72 267.56,576.58 C266.19,577.95 265.78,579.36 266.09,581.64 C266.13,581.99 265.66,582.59 265.04,582.98 C264.41,583.36 263.83,584.65 263.74,585.84 C263.65,587.03 263.23,588.00 262.82,588.00 C262.40,588.00 262.30,588.62 262.59,589.37 C262.88,590.13 262.39,591.47 261.49,592.36 C260.60,593.26 260.15,594.44 260.50,594.99 C260.84,595.55 260.74,596.00 260.27,596.00 C259.81,596.00 259.35,597.01 259.26,598.24 C259.16,599.46 258.62,600.63 258.04,600.82 C257.46,601.01 257.24,601.58 257.55,602.09 C257.86,602.59 257.66,603.00 257.09,603.00 C256.53,603.00 256.29,603.59 256.56,604.31 C256.84,605.03 256.14,606.68 255.01,607.99 C253.88,609.29 253.11,610.84 253.31,611.42 C253.50,612.00 253.04,613.11 252.27,613.87 C251.51,614.63 251.12,615.87 251.41,616.63 C251.70,617.38 251.47,618.00 250.91,618.00 C250.34,618.00 250.16,618.45 250.50,619.00 C250.84,619.55 250.68,620.00 250.14,620.00 C249.10,620.00 246.41,626.87 246.85,628.41 C246.99,628.91 246.73,629.58 246.26,629.91 C245.80,630.23 243.91,634.10 242.06,638.50 C240.22,642.90 237.61,648.97 236.27,652.00 C234.93,655.03 232.69,660.65 231.30,664.50 C229.91,668.35 228.43,671.95 228.02,672.50 C227.14,673.67 222.44,689.13 221.64,693.50 L 221.08 696.50 L 222.57 693.18 C223.39,691.36 224.72,687.33 225.53,684.24 C226.92,678.89 228.43,676.10 229.41,677.08 C229.66,677.33 228.95,680.67 227.84,684.51 C224.50,696.03 223.89,700.03 223.87,710.50 C223.79,741.36 239.05,768.72 266.19,786.37 C275.51,792.44 283.19,795.90 294.68,799.24 L 302.50 801.50 L 526.74 801.50 C735.60,801.50 750.94,801.61 750.45,803.17 C750.04,804.45 750.39,804.71 751.96,804.30 C753.11,804.00 754.00,804.25 754.00,804.88 C754.00,805.50 754.48,806.00 755.06,806.00 C755.64,806.00 755.91,805.66 755.65,805.25 C755.40,804.84 756.16,804.48 757.35,804.45 C758.53,804.42 760.62,804.04 762.00,803.59 C767.34,801.85 762.28,805.05 756.44,807.11 C743.31,811.72 734.41,812.98 709.50,813.76 L 685.50 814.50 ZM 770.00 378.00 C770.00,378.55 769.89,378.91 769.75,378.79 C769.61,378.67 764.89,378.43 759.25,378.25 L 749.00 377.93 L 749.19 365.22 C749.30,358.00 749.56,355.10 749.79,358.50 C750.09,362.88 750.42,363.96 751.03,362.50 C751.69,360.90 751.87,360.84 751.93,362.17 C751.97,363.15 753.38,364.30 755.33,364.94 C758.99,366.15 767.40,374.54 766.47,376.05 C766.14,376.57 766.81,377.00 767.94,377.00 C769.07,377.00 770.00,377.45 770.00,378.00 ZM 671.64 809.50 C671.16,810.74 672.24,811.00 677.95,811.00 C681.74,811.00 685.55,810.73 686.41,810.40 C689.76,809.11 686.57,808.00 679.55,808.00 C673.95,808.00 672.08,808.36 671.64,809.50 ZM 198.60 380.78 C198.68,292.81 199.00,265.82 199.74,264.20 C199.25,269.15 198.86,317.51 198.60,380.78 ZM 721.00 810.00 C721.00,810.55 722.46,810.99 724.25,810.98 C726.72,810.97 727.14,810.74 726.00,810.00 C724.03,808.73 721.00,808.73 721.00,810.00 ZM 294.47 814.36 C294.44,814.34 294.40,814.33 294.37,814.31 C296.82,815.22 324.94,815.49 411.82,815.44 C423.98,815.43 435.69,815.43 446.96,815.42 C439.25,815.43 431.73,815.44 424.47,815.45 C323.81,815.59 296.83,815.36 294.47,814.36 ZM 658.00 810.54 C658.00,810.79 659.11,811.00 660.47,811.00 C662.24,811.00 662.78,810.58 662.37,809.52 C661.94,808.40 661.34,808.28 659.90,809.05 C658.86,809.61 658.00,810.28 658.00,810.54 ZM 231.00 671.57 C231.00,672.36 230.54,673.00 229.97,673.00 C229.39,673.00 229.62,671.71 230.50,670.00 C231.35,668.35 232.52,667.00 233.10,667.00 C233.67,667.00 233.44,667.71 232.57,668.57 C231.71,669.44 231.00,670.79 231.00,671.57 ZM 726.33 815.09 C728.58,814.87 732.10,814.60 735.00,814.43 C737.48,814.29 739.62,814.13 741.45,813.95 C739.41,814.17 736.96,814.38 734.00,814.61 C732.60,814.71 731.66,814.80 730.71,814.88 C729.54,814.97 728.36,815.04 726.33,815.09 ZM 200.08 263.42 C200.61,261.99 201.00,259.86 201.00,258.24 C201.00,255.10 202.67,249.35 204.80,243.96 C202.67,249.43 201.00,255.32 201.00,258.65 C201.00,260.52 200.60,262.50 200.08,263.42 ZM 203.17 739.78 C204.77,745.12 206.99,751.13 208.89,754.83 C206.63,750.43 204.60,744.89 203.17,739.78 ZM 747.94 812.97 C749.56,812.55 750.54,812.06 751.04,811.45 C750.53,812.07 749.62,812.55 747.94,812.97 Z" fill="rgb(217,129,2)"/>
<path d="M 302.07 499.60 C302.03,500.76 300.65,503.12 299.00,504.84 C297.35,506.57 296.01,507.65 296.02,507.24 C296.09,503.63 319.54,465.20 320.86,466.52 C321.09,466.76 319.98,468.64 318.39,470.72 C313.67,476.88 311.53,480.24 308.61,486.02 C307.09,489.03 305.01,492.85 303.99,494.50 C302.98,496.15 302.11,498.45 302.07,499.60 ZM 287.06 529.00 C286.43,529.00 286.01,529.56 286.12,530.25 C286.01,529.56 286.27,529.00 286.71,529.00 C287.14,529.00 287.37,494.24 287.22,451.75 L 287.21 449.78 C286.96,379.58 286.92,367.54 290.99,357.11 C291.87,354.86 292.95,352.68 294.25,350.00 C292.94,352.69 291.87,354.88 290.98,357.15 C286.93,367.58 286.97,379.60 287.22,448.26 L 287.23 449.40 C287.47,516.70 287.65,524.01 289.00,521.43 C292.40,514.90 296.13,508.63 295.50,510.50 C295.13,511.60 294.66,513.34 294.45,514.37 C294.24,515.41 293.38,517.30 292.53,518.59 C291.69,519.88 291.00,521.82 291.00,522.90 C291.00,523.98 290.12,525.14 289.05,525.48 C287.87,525.86 287.32,526.67 287.66,527.55 C287.96,528.35 287.70,529.00 287.06,529.00 Z" fill="rgb(226,168,30)"/>
<path d="M 298.17 505.68 C296.48,507.99 294.93,511.61 294.39,514.80 C294.26,515.52 293.45,517.19 292.58,518.52 C291.71,519.84 291.00,521.81 291.00,522.89 C291.00,521.81 291.69,519.88 292.53,518.59 C292.55,518.57 292.56,518.54 292.58,518.52 C293.41,517.23 294.24,515.39 294.45,514.37 C294.66,513.34 295.13,511.60 295.50,510.50 C296.13,508.63 292.40,514.90 289.00,521.43 C288.21,522.94 287.82,521.05 287.58,505.58 L 288.00 455.00 C288.27,421.64 288.60,395.99 288.74,395.99 C288.75,395.99 288.76,396.05 288.76,396.17 C288.89,398.73 289.44,400.98 289.98,401.17 C290.52,401.35 291.36,404.65 291.85,408.50 C292.34,412.35 292.80,414.23 292.87,412.68 C292.94,411.14 293.56,408.89 294.25,407.68 C295.01,406.35 295.71,399.68 296.05,390.50 C296.35,382.25 296.72,401.83 296.86,434.00 C297.00,466.17 297.49,494.30 297.94,496.50 C298.59,499.64 298.79,499.92 298.89,497.79 C298.95,496.19 299.81,494.63 300.97,494.02 C302.05,493.44 304.70,489.94 306.87,486.23 C309.28,482.12 313.25,476.21 316.38,471.90 C309.21,482.35 296.07,504.54 296.02,507.24 C296.01,507.58 296.92,506.90 298.17,505.68 ZM 488.19 549.05 C488.74,550.68 488.81,552.26 488.43,553.76 C488.30,553.91 488.15,554.00 488.00,554.00 C487.45,554.00 487.00,552.88 487.00,551.50 C487.00,550.12 487.45,549.00 488.00,549.00 C488.07,549.00 488.13,549.02 488.19,549.05 ZM 469.63 550.93 C469.57,549.90 469.69,549.03 470.03,548.48 C470.57,548.18 471.00,548.60 471.00,549.44 C471.00,550.30 470.55,551.00 470.00,551.00 C469.87,551.00 469.74,550.98 469.63,550.93 ZM 287.34 475.41 C287.30,467.94 287.26,459.32 287.23,449.40 L 287.22 448.26 C286.97,379.60 286.93,367.58 290.98,357.15 C291.87,354.88 292.94,352.69 294.25,350.00 C295.84,346.75 297.22,344.31 298.96,341.93 C297.22,344.31 295.84,346.75 294.26,350.00 C292.93,352.74 291.84,354.96 290.95,357.27 C286.98,367.55 287.02,379.37 287.24,445.21 L 287.24 446.21 ZM 302.07 499.60 C302.11,498.45 302.98,496.15 303.99,494.50 C302.98,496.15 302.11,498.52 302.07,499.76 C302.04,500.89 301.08,502.64 299.88,503.84 C301.11,502.29 302.04,500.55 302.07,499.60 ZM 320.61 466.54 C320.86,466.32 321.00,466.27 321.00,466.43 C321.00,466.61 320.83,467.00 320.53,467.53 C320.82,466.99 320.95,466.62 320.86,466.52 C320.81,466.47 320.73,466.48 320.61,466.54 ZM 318.36 470.75 C318.33,470.80 318.29,470.85 318.25,470.90 C318.17,471.00 318.10,471.10 318.02,471.20 C318.14,471.05 318.25,470.90 318.36,470.75 Z" fill="rgb(210,184,156)"/>
<path d="M 309.44 330.56 C312.55,327.33 314.48,325.00 313.97,325.00 C313.32,325.00 307.68,330.18 301.43,336.51 C293.02,345.03 290.23,348.47 290.69,349.76 C291.04,350.72 290.95,351.17 290.51,350.76 C289.36,349.73 285.28,355.38 281.90,362.69 C277.85,371.43 275.38,384.26 273.07,408.50 C271.97,420.05 270.88,431.52 270.65,434.00 C269.29,448.28 267.01,468.40 266.58,469.84 C266.31,470.75 265.85,473.98 265.56,477.00 C264.03,493.24 258.54,524.19 255.86,531.76 C254.74,534.92 253.23,539.97 252.51,543.00 C251.79,546.03 249.80,552.78 248.08,558.00 C246.37,563.22 243.56,572.00 241.85,577.50 C240.13,583.00 237.89,589.61 236.86,592.18 C235.84,594.76 234.15,600.42 233.12,604.76 C232.08,609.11 230.05,614.87 228.61,617.57 C227.18,620.27 226.00,623.30 226.00,624.29 C226.00,625.28 224.88,628.20 223.50,630.79 C222.12,633.37 220.96,636.39 220.92,637.49 C220.86,638.96 220.40,638.55 219.23,636.00 C217.82,632.94 217.52,623.10 216.81,557.00 C216.36,515.47 215.65,476.10 215.23,469.50 L 214.47 457.50 L 213.82 469.50 C213.47,476.10 212.96,486.90 212.70,493.50 C212.43,500.10 211.88,512.74 211.47,521.60 L 210.74 537.70 L 208.37 537.44 C206.09,537.19 206.00,537.43 205.97,543.84 C205.95,547.96 205.40,551.21 204.53,552.35 C203.24,554.05 203.10,553.89 202.73,550.35 C202.73,550.29 202.72,550.27 202.72,550.27 C202.50,550.27 202.21,587.62 202.07,635.00 C201.94,675.04 201.59,708.17 201.23,717.76 C201.64,701.50 201.84,615.11 201.73,497.50 C201.60,373.20 201.87,269.62 202.33,267.31 C202.92,264.29 203.55,263.27 204.58,263.67 C205.41,263.99 206.00,263.60 206.00,262.74 C206.00,261.94 207.40,259.53 209.11,257.39 C210.82,255.25 213.30,251.25 214.63,248.50 C215.96,245.75 217.73,242.38 218.56,241.00 C220.02,238.58 220.05,238.64 219.51,243.00 C219.21,245.48 218.47,250.43 217.87,254.00 C217.10,258.60 216.97,297.44 217.43,387.00 C218.10,516.48 218.11,521.84 219.03,522.00 C219.07,522.01 219.11,522.01 219.15,522.00 C219.17,522.00 219.20,522.00 219.22,522.00 C219.65,522.00 220.03,523.24 220.07,524.75 C220.13,527.45 220.15,527.46 221.22,525.25 C221.82,524.01 222.69,523.00 223.15,523.00 C223.62,523.00 224.00,520.75 224.00,518.00 C224.00,515.25 224.45,513.00 225.00,513.00 C225.55,513.00 226.00,512.39 226.00,511.65 C226.00,510.90 227.06,509.15 228.36,507.75 C229.90,506.09 230.96,503.37 231.41,499.94 C231.80,497.04 232.99,492.86 234.06,490.65 C235.13,488.43 236.00,485.39 236.00,483.87 C236.00,482.36 236.40,480.87 236.88,480.57 C237.93,479.92 240.99,470.87 241.02,468.31 C241.03,467.32 241.96,464.48 243.08,462.02 C244.20,459.55 245.80,452.35 246.65,446.02 C247.50,439.68 248.86,432.25 249.69,429.50 C251.17,424.55 252.48,417.19 253.59,407.50 C253.91,404.75 255.00,400.25 256.01,397.50 C257.02,394.75 258.84,388.00 260.06,382.50 C261.64,375.32 263.71,369.72 267.38,362.64 C277.18,343.75 297.19,326.26 313.29,322.51 C316.66,321.72 319.66,321.35 319.96,321.68 C320.26,322.01 319.87,322.50 319.11,322.77 C318.34,323.04 314.25,326.32 310.00,330.06 C309.81,330.22 309.63,330.39 309.44,330.56 ZM 287.06 529.00 C287.70,529.00 287.96,528.35 287.66,527.55 C287.32,526.67 287.87,525.86 289.05,525.48 C290.12,525.14 291.00,523.98 291.00,522.90 L 291.00 522.89 L 291.00 522.89 C291.00,521.80 291.71,519.84 292.58,518.52 C293.45,517.19 294.26,515.52 294.39,514.80 C294.93,511.61 296.48,507.99 298.17,505.68 C298.43,505.43 298.71,505.14 299.00,504.84 C299.30,504.53 299.60,504.19 299.88,503.84 C300.96,502.76 301.84,501.24 302.03,500.12 C301.88,501.24 301.30,502.55 300.65,503.21 C299.43,504.43 298.88,506.32 297.57,513.80 C297.35,515.06 296.70,516.65 296.14,517.34 C295.57,518.02 293.77,522.16 292.15,526.54 C290.52,530.92 288.48,535.85 287.60,537.50 C286.73,539.15 286.01,540.91 286.01,541.41 C286.00,541.92 283.26,548.67 279.92,556.41 C276.57,564.16 272.90,572.75 271.77,575.50 C270.64,578.25 269.13,581.85 268.43,583.50 C267.74,585.15 266.28,588.75 265.20,591.50 C264.12,594.25 260.99,601.90 258.24,608.50 C255.50,615.10 251.13,625.67 248.54,632.00 C245.94,638.33 242.71,645.94 241.35,648.91 C239.05,653.95 236.22,661.19 235.65,663.50 C235.52,664.05 234.85,665.51 234.17,666.75 C233.49,667.99 233.20,669.00 233.54,669.00 C233.87,669.00 233.41,669.73 232.51,670.63 C231.62,671.52 231.12,672.87 231.41,673.63 C231.70,674.38 231.58,675.00 231.14,675.00 C230.69,675.00 230.28,675.56 230.22,676.25 C230.16,676.94 229.14,680.65 227.96,684.50 C226.26,690.04 225.24,693.88 224.65,697.66 C225.23,693.98 226.21,690.15 227.84,684.51 C228.95,680.67 229.66,677.33 229.41,677.08 C228.43,676.10 226.92,678.89 225.53,684.24 C224.72,687.33 223.39,691.36 222.57,693.18 L 221.08 696.50 L 221.64 693.50 C222.44,689.13 227.14,673.67 228.02,672.50 C228.43,671.95 229.91,668.35 231.30,664.50 C232.69,660.65 234.93,655.03 236.27,652.00 C237.61,648.97 240.22,642.90 242.06,638.50 C243.91,634.10 245.80,630.23 246.26,629.91 C246.73,629.58 246.99,628.91 246.85,628.41 C246.41,626.87 249.10,620.00 250.14,620.00 C250.68,620.00 250.84,619.55 250.50,619.00 C250.16,618.45 250.34,618.00 250.91,618.00 C251.47,618.00 251.70,617.38 251.41,616.63 C251.12,615.87 251.51,614.63 252.27,613.87 C253.04,613.11 253.50,612.00 253.31,611.42 C253.11,610.84 253.88,609.29 255.01,607.99 C256.14,606.68 256.84,605.03 256.56,604.31 C256.29,603.59 256.53,603.00 257.09,603.00 C257.66,603.00 257.86,602.59 257.55,602.09 C257.24,601.58 257.46,601.01 258.04,600.82 C258.62,600.63 259.16,599.46 259.26,598.24 C259.35,597.01 259.81,596.00 260.27,596.00 C260.74,596.00 260.84,595.55 260.50,594.99 C260.15,594.44 260.60,593.26 261.49,592.36 C262.39,591.47 262.88,590.13 262.59,589.37 C262.30,588.62 262.40,588.00 262.82,588.00 C263.23,588.00 263.65,587.03 263.74,585.84 C263.83,584.65 264.41,583.36 265.04,582.98 C265.66,582.59 266.13,581.99 266.09,581.64 C265.78,579.36 266.19,577.95 267.56,576.58 C268.42,575.72 268.85,574.56 268.50,574.01 C268.16,573.45 268.39,573.00 269.00,573.00 C269.61,573.00 269.84,572.55 269.50,572.00 C269.16,571.45 269.39,571.00 270.00,571.00 C270.61,571.00 270.84,570.55 270.50,570.00 C270.16,569.45 270.38,569.00 270.98,569.00 C271.59,569.00 271.98,568.44 271.84,567.75 C271.45,565.78 274.04,559.00 275.18,559.00 C275.75,559.00 275.95,558.33 275.64,557.50 C275.32,556.67 275.53,556.00 276.09,556.00 C276.66,556.00 276.84,555.55 276.50,555.00 C276.16,554.45 276.32,554.00 276.86,554.00 C277.86,554.00 280.60,547.17 280.19,545.70 C280.06,545.25 280.67,544.18 281.54,543.32 C282.41,542.45 282.88,541.13 282.59,540.37 C282.30,539.62 282.53,539.00 283.09,539.00 C283.66,539.00 283.84,538.55 283.50,538.00 C283.16,537.45 283.31,537.00 283.83,537.00 C284.86,537.00 286.46,532.29 286.12,530.25 C286.01,529.56 286.43,529.00 287.06,529.00 ZM 770.00 378.00 C770.00,377.45 769.07,377.00 767.94,377.00 C766.81,377.00 766.14,376.57 766.47,376.05 C767.40,374.54 758.99,366.15 755.33,364.94 C753.38,364.30 751.97,363.15 751.93,362.17 C751.87,360.84 751.69,360.90 751.03,362.50 C750.42,363.96 750.09,362.88 749.79,358.50 C749.56,355.10 749.30,358.00 749.19,365.22 L 749.00 377.93 L 759.25 378.25 C761.15,378.31 762.95,378.38 764.50,378.45 C762.96,378.40 761.22,378.34 759.25,378.28 L 749.00 377.93 L 749.00 363.98 C749.00,352.44 748.65,349.11 747.00,344.76 C744.41,337.94 744.46,337.69 747.86,340.87 C751.40,344.17 755.34,344.59 759.55,342.10 C762.76,340.21 762.78,340.21 763.87,342.35 C765.42,345.37 768.00,355.88 768.00,359.16 C768.00,362.19 769.89,367.00 771.08,367.00 C771.50,367.00 772.81,365.42 774.00,363.50 C775.19,361.58 776.58,360.00 777.08,360.00 C778.13,360.00 778.15,372.23 777.11,376.00 C776.55,378.04 776.32,378.62 769.95,378.57 C769.98,378.43 770.00,378.23 770.00,378.00 ZM 761.21 805.12 C764.38,803.58 765.74,802.37 762.00,803.59 C760.62,804.04 758.53,804.42 757.35,804.45 C756.16,804.48 755.40,804.84 755.65,805.25 C755.91,805.66 755.64,806.00 755.06,806.00 C754.48,806.00 754.00,805.50 754.00,804.88 C754.00,804.25 753.11,804.00 751.96,804.30 C750.39,804.71 750.04,804.45 750.45,803.17 C750.77,802.16 744.47,801.76 683.59,801.60 C713.91,801.43 733.94,801.22 736.03,800.97 C757.10,798.40 770.88,791.77 789.42,775.27 C792.68,772.37 795.99,770.00 796.79,770.00 C798.01,770.00 798.03,770.26 796.91,771.61 C795.78,772.97 795.85,773.42 797.37,774.53 C799.07,775.77 799.07,775.96 797.41,778.49 C795.11,782.01 781.96,793.42 775.58,797.45 C770.73,800.50 766.07,803.03 761.21,805.12 ZM 671.64 809.50 C672.08,808.36 673.95,808.00 679.55,808.00 C686.57,808.00 689.76,809.11 686.41,810.40 C685.55,810.73 681.74,811.00 677.95,811.00 C672.24,811.00 671.16,810.74 671.64,809.50 ZM 317.86 801.50 L 302.50 801.50 L 294.68 799.24 C292.79,798.69 291.00,798.13 289.28,797.56 C291.23,798.15 292.99,798.54 294.50,798.70 C296.70,798.92 303.45,799.14 309.50,799.19 C318.41,799.26 319.36,799.39 314.50,799.89 C310.44,800.30 309.09,800.74 310.33,801.25 C310.56,801.34 313.19,801.43 317.86,801.50 ZM 721.00 810.00 C721.00,808.73 724.03,808.73 726.00,810.00 C727.14,810.74 726.72,810.97 724.25,810.98 C722.46,810.99 721.00,810.55 721.00,810.00 ZM 658.00 810.54 C658.00,810.28 658.86,809.61 659.90,809.05 C661.34,808.28 661.94,808.40 662.37,809.52 C662.78,810.58 662.24,811.00 660.47,811.00 C659.11,811.00 658.00,810.79 658.00,810.54 ZM 231.00 671.57 C231.00,670.79 231.71,669.44 232.57,668.57 C233.44,667.71 233.67,667.00 233.10,667.00 C232.52,667.00 231.35,668.35 230.50,670.00 C229.62,671.71 229.39,673.00 229.97,673.00 C230.54,673.00 231.00,672.36 231.00,671.57 ZM 690.14 814.36 L 709.50 813.76 C716.89,813.53 722.87,813.25 727.97,812.86 C720.13,813.62 711.15,814.02 700.50,814.19 ZM 241.47 763.58 C229.99,748.37 223.82,730.15 223.87,710.50 C223.82,729.84 229.96,748.13 241.47,763.58 ZM 284.03 795.68 C277.76,793.24 272.33,790.37 266.19,786.37 C265.26,785.77 264.34,785.15 263.43,784.52 C270.06,788.98 277.56,793.05 284.03,795.68 ZM 703.50 815.08 L 685.50 814.50 L 686.58 814.47 L 703.50 815.04 C705.69,815.12 707.87,815.18 709.96,815.23 L 709.04 815.23 C707.23,815.19 705.37,815.14 703.50,815.08 ZM 288.79 365.27 C289.33,362.09 290.03,359.64 290.95,357.27 C291.24,356.50 291.56,355.75 291.89,354.99 C290.62,358.22 289.60,361.64 288.79,365.27 ZM 296.40 345.90 C297.21,344.48 298.03,343.20 298.96,341.93 C299.71,340.90 300.52,339.88 301.45,338.82 C299.57,341.10 297.89,343.45 296.40,345.90 ZM 287.19 398.89 C287.14,409.85 287.17,424.73 287.24,445.21 C287.17,425.33 287.12,410.37 287.19,398.89 ZM 201.05 720.46 C201.03,720.57 201.01,720.58 200.99,720.50 C200.81,719.82 200.56,718.82 200.30,717.68 C200.29,717.60 200.28,717.52 200.27,717.44 C200.56,718.65 200.84,719.73 201.05,720.46 Z" fill="rgb(236,156,2)"/>
<path d="M 416.00 193.50 L 419.50 194.85 L 416.50 194.83 C414.85,194.81 412.38,194.18 411.00,193.42 C408.83,192.21 408.76,192.04 410.50,192.09 C411.60,192.12 414.08,192.76 416.00,193.50 Z" fill="rgb(245,219,83)"/>
<path d="M 287.34 475.41 L 287.24 445.21 C287.17,424.73 287.14,409.86 287.19,398.89 L 287.19 398.89 C287.30,381.13 287.71,371.71 288.79,365.27 C289.60,361.64 290.62,358.22 291.89,354.99 C292.58,353.44 293.37,351.83 294.26,350.00 C295.00,348.48 295.69,347.14 296.40,345.90 C297.89,343.45 299.57,341.10 301.45,338.82 C302.53,337.58 303.75,336.29 305.19,334.83 C304.51,335.80 304.34,336.49 304.54,337.12 C305.50,340.15 304.17,342.92 301.95,342.49 C299.82,342.08 299.20,344.80 301.01,346.61 C301.68,347.28 301.48,349.16 300.41,352.32 C299.32,355.50 299.11,358.19 299.66,359.25 C298.95,359.62 299.09,361.66 299.79,363.82 C299.61,363.33 299.46,362.85 299.34,362.42 C298.61,359.69 298.51,359.83 297.87,364.50 C296.93,371.31 297.04,459.75 298.00,463.50 C298.68,466.17 298.78,466.23 298.88,464.08 C298.95,462.75 299.25,461.92 299.56,462.23 C299.87,462.54 301.14,461.82 302.38,460.64 C303.63,459.46 305.89,457.60 307.41,456.50 C317.07,449.51 321.23,446.72 327.00,443.38 C330.58,441.31 333.73,439.35 334.00,439.01 C335.11,437.67 342.27,433.97 343.34,434.18 C346.17,434.73 355.11,431.67 356.10,429.82 C356.68,428.73 357.76,428.08 358.50,428.36 C359.25,428.65 360.39,428.23 361.05,427.44 C361.71,426.65 363.88,426.01 365.87,426.03 L 369.50 426.06 L 364.00 429.30 C348.83,438.23 340.57,444.45 332.29,453.17 C329.66,455.94 326.04,459.66 324.25,461.43 C322.46,463.20 321.00,465.24 321.00,465.98 C321.00,466.07 320.98,466.19 320.94,466.33 C320.88,466.33 320.77,466.40 320.61,466.54 C319.99,466.88 318.43,468.91 316.38,471.90 L 316.37 471.90 C313.25,476.21 309.28,482.12 306.87,486.23 C304.70,489.94 302.05,493.44 300.97,494.02 C299.81,494.63 298.95,496.19 298.89,497.79 C298.79,499.92 298.59,499.64 297.94,496.50 C297.49,494.30 297.00,466.17 296.86,434.00 C296.72,401.83 296.35,382.25 296.05,390.50 C295.71,399.68 295.01,406.35 294.25,407.68 C293.56,408.89 292.94,411.14 292.87,412.68 C292.80,414.23 292.34,412.35 291.85,408.50 C291.36,404.65 290.52,401.35 289.98,401.17 C289.44,400.98 288.89,398.73 288.76,396.17 C288.76,396.05 288.75,395.99 288.74,395.99 C288.60,395.99 288.27,421.64 288.00,455.00 L 287.58 505.58 C287.48,498.60 287.40,488.86 287.34,475.41 ZM 454.48 412.61 L 447.13 416.00 L 429.82 415.80 C413.23,415.61 412.96,415.58 423.50,415.00 C429.55,414.67 433.83,414.24 433.00,414.06 C431.39,413.69 438.86,412.38 448.30,411.37 C452.92,410.88 454.69,410.15 457.07,407.78 C458.83,406.02 460.66,405.04 461.54,405.38 C462.45,405.73 464.71,404.41 467.27,402.02 C474.61,395.20 481.08,390.00 482.24,390.00 C482.86,390.00 481.37,391.69 478.93,393.75 C476.49,395.81 471.65,400.14 468.16,403.36 C464.22,407.00 459.05,410.49 454.48,412.61 ZM 355.55 408.72 C356.81,408.73 358.13,408.75 359.50,408.76 C372.02,408.90 382.38,408.64 386.76,408.10 C382.29,408.78 372.08,408.99 355.99,408.73 ZM 313.09 331.92 C313.76,330.42 315.03,329.63 318.48,327.90 C316.09,329.10 314.12,330.62 313.09,331.92 ZM 311.20 337.14 C311.86,335.91 312.34,334.81 312.47,334.16 L 312.48 334.13 C312.50,334.16 312.53,334.19 312.56,334.22 C312.74,334.40 312.18,335.57 311.20,337.14 ZM 302.05 355.40 C302.12,354.08 302.56,352.45 303.32,350.58 C302.72,352.21 302.31,353.79 302.05,355.40 ZM 315.73 325.21 C317.45,323.84 318.72,322.91 319.11,322.77 C319.87,322.50 320.26,322.01 319.96,321.68 C320.26,322.01 319.91,322.48 319.19,322.74 C318.79,322.88 317.47,323.83 315.73,325.21 ZM 393.34 407.03 C395.56,406.72 397.87,406.46 399.65,406.32 C401.51,406.17 402.92,405.99 404.05,405.72 C402.92,405.99 401.51,406.17 399.65,406.32 C397.91,406.45 395.61,406.72 393.34,407.03 Z" fill="rgb(245,234,202)"/>
<path d="M 317.86 801.50 C313.19,801.43 310.56,801.34 310.33,801.25 C309.09,800.74 310.44,800.30 314.50,799.89 C319.36,799.39 318.41,799.26 309.50,799.19 C303.45,799.14 296.70,798.92 294.50,798.70 C292.99,798.54 291.23,798.15 289.28,797.56 C287.45,796.96 285.71,796.33 284.03,795.68 C277.56,793.05 270.06,788.98 263.43,784.52 C254.77,778.49 247.41,771.44 241.47,763.58 C229.96,748.13 223.82,729.84 223.87,710.50 L 223.87 710.50 C223.88,705.87 224.00,702.50 224.43,699.19 C224.22,701.10 224.17,702.94 224.22,705.00 C224.34,709.90 224.39,710.04 224.73,706.25 C224.94,703.91 225.51,702.00 225.98,702.00 C226.46,702.00 227.52,699.86 228.35,697.25 C231.39,687.60 241.00,664.29 248.46,648.50 C250.80,643.53 254.45,635.40 265.49,610.50 C274.40,590.40 281.17,575.70 282.53,573.50 C283.21,572.40 284.07,570.15 284.46,568.50 C285.31,564.79 295.69,543.13 297.73,540.80 C298.55,539.87 300.18,536.46 301.36,533.23 C304.29,525.20 311.22,517.00 309.59,523.49 C309.12,525.39 309.57,526.51 311.48,528.17 C312.87,529.38 314.00,531.04 314.00,531.86 C314.00,533.61 312.38,538.92 310.22,544.25 C308.83,547.67 308.85,548.37 310.45,552.25 C313.23,558.99 313.58,559.48 315.85,559.82 C317.10,560.01 318.19,561.05 318.46,562.32 C319.65,567.88 321.00,579.36 321.00,583.86 C321.00,590.08 321.72,592.00 324.04,592.00 C326.12,592.00 327.43,595.08 326.54,597.89 C325.84,600.08 320.87,601.38 319.75,599.66 C318.33,597.46 316.89,601.31 317.57,605.50 C318.33,610.21 318.33,611.88 317.51,622.50 C316.91,630.35 317.98,635.07 319.75,632.34 C321.03,630.38 325.95,631.96 326.60,634.54 C327.68,638.86 326.72,640.50 323.11,640.48 L 319.77 640.47 L 320.47 654.48 C320.89,662.97 321.63,668.94 322.33,669.63 C322.97,670.25 325.86,671.01 328.74,671.33 C333.82,671.89 334.01,671.82 334.58,669.20 C335.58,664.67 335.84,664.37 335.92,667.63 C336.01,671.14 337.26,672.52 341.26,673.53 C343.46,674.08 344.00,674.79 344.00,677.11 C344.00,679.65 344.36,680.00 346.98,680.00 C349.42,680.00 350.07,680.50 350.56,682.75 C350.90,684.26 351.33,686.05 351.54,686.72 C351.74,687.39 351.55,688.16 351.11,688.43 C350.17,689.01 351.24,696.11 352.96,700.70 C354.13,703.82 354.30,703.89 359.83,703.71 C362.95,703.61 366.29,703.91 367.26,704.37 C368.59,705.01 368.89,704.87 368.47,703.78 C368.05,702.68 368.58,702.43 370.71,702.75 C372.80,703.06 374.00,704.19 375.50,707.28 C376.93,710.22 378.34,711.61 380.46,712.16 C382.11,712.60 383.67,712.53 383.98,712.03 C384.32,711.48 386.35,711.53 389.02,712.14 C391.49,712.71 396.20,712.91 399.50,712.59 C405.37,712.02 405.54,712.08 407.20,715.00 C408.38,717.07 409.68,718.00 411.39,718.00 C412.76,718.00 414.16,718.45 414.50,719.00 C414.87,719.60 413.68,720.00 411.56,720.00 C407.89,720.00 406.79,721.32 409.58,722.39 C410.45,722.73 415.40,723.00 420.58,723.00 C426.80,723.00 430.00,723.38 430.00,724.11 C430.00,724.72 430.66,724.96 431.47,724.65 C432.28,724.34 433.20,724.52 433.53,725.04 C433.85,725.57 434.91,726.00 435.88,726.00 C436.86,726.00 438.71,727.12 440.00,728.50 C441.96,730.59 443.27,731.00 447.94,731.00 C452.77,731.00 453.66,730.70 454.51,728.75 C455.38,726.78 456.35,726.46 462.39,726.20 C468.72,725.93 469.52,726.12 472.10,728.59 C474.73,731.11 475.18,731.22 479.20,730.20 C486.53,728.35 492.07,727.90 495.35,728.90 C497.08,729.43 500.52,730.38 503.00,731.02 C509.08,732.58 513.96,735.02 513.71,736.38 C513.59,737.00 515.01,737.64 516.85,737.82 C518.81,738.01 519.96,737.74 519.61,737.18 C519.29,736.66 520.03,735.94 521.26,735.59 C525.36,734.42 547.49,733.70 553.54,734.54 C559.22,735.33 559.34,735.40 556.00,736.05 C553.03,736.63 552.90,736.76 555.16,736.87 C556.78,736.95 558.81,738.17 560.35,740.00 C562.60,742.67 563.48,743.00 568.44,743.00 C573.14,743.00 574.35,742.61 576.19,740.50 C577.56,738.92 579.42,738.00 581.24,738.00 C582.82,738.00 583.87,737.60 583.57,737.11 C583.06,736.29 586.06,735.04 588.64,735.01 C589.27,735.01 590.06,736.09 590.39,737.43 C591.58,742.17 593.10,742.71 607.47,743.48 C621.73,744.24 624.00,743.76 624.00,739.98 C624.00,739.01 624.71,737.94 625.58,737.61 C627.70,736.80 640.92,738.07 641.59,739.15 C642.37,740.41 653.77,740.18 654.57,738.89 C655.04,738.13 655.45,738.11 655.90,738.84 C656.34,739.54 657.86,739.59 660.53,738.97 C667.87,737.27 670.75,737.70 672.21,740.75 C673.48,743.41 673.81,743.51 682.51,743.78 C695.02,744.17 702.07,743.04 703.01,740.50 C703.74,738.55 703.39,738.51 688.88,738.80 C675.78,739.06 674.00,738.91 674.00,737.50 C674.00,736.12 674.85,736.01 680.25,736.70 C688.54,737.76 699.56,737.51 704.44,736.15 C708.57,735.00 713.38,735.58 712.43,737.11 C712.13,737.60 713.21,738.00 714.83,738.00 C717.85,738.00 720.39,735.38 721.14,731.50 C721.38,730.27 722.67,729.34 724.75,728.92 C726.53,728.55 728.65,727.71 729.45,727.04 C730.93,725.81 740.00,726.06 746.69,727.52 C749.68,728.16 749.95,727.99 750.85,724.86 L 751.82 721.50 L 752.01 724.50 C752.19,727.42 752.22,727.43 752.89,725.00 C753.40,723.15 754.43,722.37 756.83,722.00 C758.62,721.72 759.95,721.06 759.79,720.52 C759.63,719.98 761.30,719.24 763.50,718.87 C767.86,718.15 769.26,718.60 767.00,720.00 C765.03,721.22 770.57,723.33 773.68,722.54 C776.51,721.83 780.00,718.18 780.00,715.93 C780.00,714.99 781.12,713.49 782.50,712.59 C783.91,711.67 785.01,709.99 785.02,708.73 C785.04,704.97 786.32,704.13 792.42,703.81 C796.82,703.58 798.51,703.06 799.15,701.75 C799.62,700.79 800.39,699.21 800.86,698.25 C802.14,695.63 803.42,696.13 804.00,699.49 C804.65,703.28 808.00,704.33 808.00,700.74 C808.00,699.42 808.30,698.04 808.66,697.68 C809.92,696.42 812.00,699.26 812.00,702.24 C812.00,704.74 811.67,705.15 810.00,704.71 C808.37,704.28 808.00,704.68 808.01,706.84 C808.01,708.30 808.91,710.85 810.00,712.50 C811.28,714.43 811.99,717.19 811.99,720.25 C812.00,723.68 812.39,725.00 813.42,725.00 C814.20,725.00 814.98,724.61 815.17,724.13 C815.35,723.65 816.57,722.93 817.88,722.52 C820.17,721.81 820.24,721.93 819.57,725.46 C819.19,727.49 818.63,729.79 818.33,730.58 C817.94,731.60 818.26,731.84 819.41,731.40 C820.80,730.86 820.89,731.16 820.03,733.41 C819.48,734.86 818.83,737.18 818.58,738.55 C818.33,739.93 816.97,743.57 815.56,746.65 C814.15,749.72 813.00,752.96 813.00,753.85 C813.00,756.68 805.07,768.93 798.15,777.33 C799.02,775.86 798.76,775.55 797.37,774.53 C795.85,773.42 795.78,772.97 796.91,771.61 C798.03,770.26 798.01,770.00 796.79,770.00 C795.99,770.00 792.68,772.37 789.42,775.27 C770.88,791.77 757.10,798.40 736.03,800.97 C733.94,801.22 713.91,801.43 683.59,801.60 C650.27,801.51 600.61,801.50 526.74,801.50 ZM 213.56 227.38 C213.02,229.70 213.59,231.20 214.80,229.43 C215.19,228.87 216.62,228.43 218.00,228.46 C219.78,228.49 220.46,228.00 220.36,226.76 C220.29,225.80 220.56,225.23 220.96,225.48 C221.37,225.73 222.55,225.15 223.60,224.20 C228.74,219.51 242.33,210.00 243.89,210.00 C244.87,210.00 245.98,209.69 246.36,209.30 C246.74,208.92 247.61,208.51 248.28,208.38 C248.59,208.32 248.89,208.27 249.17,208.21 C253.35,207.43 255.21,207.08 255.29,207.33 C255.36,207.52 254.28,208.11 252.34,209.16 C252.17,209.25 252.00,209.34 251.82,209.44 C247.33,211.86 245.77,213.33 245.37,215.50 C245.27,216.05 244.89,217.25 244.52,218.18 C243.98,219.50 244.28,219.74 245.92,219.31 C248.39,218.67 248.59,220.34 246.50,224.00 C244.35,227.76 244.44,251.63 246.62,256.72 C249.36,263.10 249.64,263.49 251.75,263.81 C254.05,264.15 254.71,266.71 255.65,279.00 C256.29,287.44 256.84,288.52 260.95,289.34 C262.94,289.74 263.95,290.61 264.18,292.11 C264.35,293.31 265.29,294.68 266.25,295.15 C267.21,295.62 268.79,296.38 269.75,296.85 C270.71,297.32 271.64,298.85 271.81,300.25 C272.37,304.92 275.04,306.24 282.68,305.64 C286.43,305.35 293.17,304.90 297.65,304.64 C302.13,304.39 306.73,303.68 307.88,303.07 C310.69,301.56 349.49,301.34 351.27,302.81 C354.39,305.40 410.12,306.12 631.50,306.45 C671.10,306.51 705.30,306.91 707.50,307.35 C710.39,307.91 711.08,307.84 710.00,307.08 C707.55,305.36 711.10,305.70 714.77,307.53 C719.84,310.06 729.26,312.16 731.99,311.37 C735.81,310.25 738.00,310.18 738.00,311.16 C738.00,311.65 739.80,311.92 742.00,311.77 C744.20,311.62 746.00,311.16 746.00,310.75 C746.00,310.34 746.53,310.00 747.18,310.00 C748.48,310.00 757.00,318.78 757.00,320.11 C757.00,320.57 759.08,324.32 761.63,328.45 C765.44,334.63 766.68,335.92 768.63,335.76 C769.93,335.65 771.00,335.25 771.00,334.88 C771.00,334.50 771.82,334.40 772.81,334.66 C774.19,335.02 774.97,336.98 776.06,342.82 C776.79,346.71 777.26,353.75 777.42,360.50 C777.32,360.18 777.21,360.00 777.08,360.00 C776.58,360.00 775.19,361.58 774.00,363.50 C772.81,365.42 771.50,367.00 771.08,367.00 C769.89,367.00 768.00,362.19 768.00,359.16 C768.00,355.88 765.42,345.37 763.87,342.35 C762.78,340.21 762.76,340.21 759.55,342.10 C755.34,344.59 751.40,344.17 747.86,340.87 C744.88,338.09 744.47,337.93 746.16,342.53 C741.01,329.55 730.57,320.04 717.00,316.00 C710.24,313.99 708.60,313.97 523.84,314.23 L 337.50 314.50 L 331.33 316.68 C327.11,318.18 323.56,319.90 319.74,322.45 C320.06,322.21 320.16,321.91 319.96,321.68 L 319.96 321.68 C319.66,321.35 316.66,321.72 313.29,322.51 C297.19,326.26 277.18,343.75 267.38,362.64 C263.71,369.72 261.64,375.32 260.06,382.50 C258.84,388.00 257.02,394.75 256.01,397.50 C255.00,400.25 253.91,404.75 253.59,407.50 C252.48,417.19 251.17,424.55 249.69,429.50 C248.86,432.25 247.50,439.68 246.65,446.02 C245.80,452.35 244.20,459.55 243.08,462.02 C241.96,464.48 241.03,467.32 241.02,468.31 C240.99,470.87 237.93,479.92 236.88,480.57 C236.40,480.87 236.00,482.36 236.00,483.87 C236.00,485.39 235.13,488.43 234.06,490.65 C232.99,492.86 231.80,497.04 231.41,499.94 C230.96,503.37 229.90,506.09 228.36,507.75 C227.06,509.15 226.00,510.90 226.00,511.65 C226.00,512.39 225.55,513.00 225.00,513.00 C224.45,513.00 224.00,515.25 224.00,518.00 C224.00,520.75 223.62,523.00 223.15,523.00 C222.69,523.00 221.82,524.01 221.22,525.25 C220.15,527.46 220.13,527.45 220.07,524.75 C220.03,523.24 219.65,522.00 219.22,522.00 C219.20,522.00 219.17,522.00 219.15,522.00 C219.11,522.01 219.07,522.01 219.03,522.00 C218.11,521.84 218.10,516.48 217.43,387.00 C216.97,297.44 217.10,258.60 217.87,254.00 C218.47,250.43 219.21,245.48 219.51,243.00 C220.05,238.64 220.02,238.58 218.56,241.00 C217.73,242.38 215.96,245.75 214.63,248.50 C213.30,251.25 210.82,255.25 209.11,257.39 C207.40,259.53 206.00,261.94 206.00,262.74 C206.00,263.60 205.41,263.99 204.58,263.67 C203.79,263.37 203.24,263.90 202.75,265.53 C203.27,259.73 203.97,256.50 204.88,253.34 C205.24,252.10 205.63,250.87 206.05,249.50 C207.25,245.65 209.55,239.87 211.17,236.67 C213.59,231.86 213.82,230.91 212.46,231.16 C213.27,230.86 213.68,230.30 213.39,229.83 C213.14,229.42 213.23,228.54 213.56,227.38 ZM 587.14 677.94 C592.84,677.36 598.81,676.24 600.40,675.44 C601.82,674.74 603.58,674.15 604.57,674.02 C601.65,674.71 600.00,675.85 600.00,677.23 C600.00,677.77 600.78,677.89 601.75,677.50 C602.71,677.11 604.96,676.36 606.75,675.84 C610.97,674.63 610.88,673.17 606.98,673.60 C610.51,672.63 616.84,670.05 620.63,667.94 C622.37,666.97 624.86,665.14 627.51,662.99 C627.48,663.02 627.45,663.04 627.43,663.07 C624.68,665.65 624.04,668.18 626.76,665.72 C627.73,664.84 629.69,663.91 631.13,663.65 C633.91,663.15 638.00,660.92 638.00,659.91 C638.00,658.46 641.71,655.20 642.66,655.82 C644.27,656.87 644.82,659.33 643.85,661.20 C643.20,662.48 642.08,662.79 639.36,662.44 C636.41,662.07 635.94,662.23 636.85,663.32 C639.40,666.39 628.49,678.00 623.05,678.00 C622.49,678.00 619.82,679.36 617.12,681.02 C612.53,683.84 602.07,687.17 594.00,688.37 C584.12,689.83 568.30,689.94 563.50,688.57 C560.75,687.79 554.45,686.85 549.50,686.49 C544.55,686.14 538.26,685.13 535.52,684.26 C530.25,682.60 518.00,673.55 518.00,671.33 C518.00,670.62 516.50,669.40 514.67,668.63 C512.83,667.87 511.33,666.53 511.33,665.66 C511.33,664.80 511.66,664.29 512.06,664.54 C512.68,664.92 514.00,662.79 514.00,661.42 C514.00,661.19 512.71,661.00 511.12,661.00 C507.64,661.00 505.73,658.95 506.16,655.69 C506.33,654.36 505.93,652.62 505.25,651.81 C504.29,650.64 504.31,649.96 505.35,648.54 C506.43,647.06 507.03,646.95 508.83,647.91 C510.10,648.59 511.00,650.03 511.00,651.38 C511.00,653.88 514.21,657.46 515.38,656.28 C515.78,655.89 515.83,656.28 515.50,657.15 C515.12,658.12 515.53,658.99 516.53,659.37 C518.41,660.10 520.00,659.38 520.00,657.82 C520.00,657.19 519.31,657.32 518.31,658.13 C516.83,659.34 516.71,659.28 517.32,657.64 C517.80,656.38 517.06,654.48 515.01,651.70 C514.51,651.02 514.09,650.41 513.74,649.84 C514.27,650.65 514.96,651.56 515.86,652.70 C528.50,668.70 546.25,676.53 575.14,678.87 C576.05,678.94 581.45,678.52 587.14,677.94 ZM 484.32 603.71 C495.83,597.65 502.61,586.00 504.16,573.51 C502.77,585.14 496.89,596.04 486.79,602.32 C484.16,603.96 482.00,605.71 482.00,606.21 C482.00,606.71 481.48,606.80 480.85,606.40 C480.14,605.97 479.96,606.13 480.38,606.81 C480.86,607.58 481.86,607.62 483.62,606.95 C485.02,606.42 486.53,606.21 486.97,606.48 C487.95,607.09 493.00,603.23 493.00,601.87 C493.00,601.33 492.48,601.20 491.85,601.60 C491.16,602.02 490.96,601.87 491.35,601.24 C492.26,599.77 494.52,600.26 496.95,602.46 C499.56,604.82 499.54,604.99 496.25,610.02 C493.45,614.30 487.76,618.00 483.97,618.00 C482.82,618.00 481.11,618.39 480.18,618.87 C477.24,620.39 461.55,620.88 458.91,619.54 C453.26,616.68 450.92,615.31 446.10,612.02 C443.29,610.10 441.00,608.01 441.00,607.37 C441.00,606.73 439.65,604.77 438.00,603.00 C435.02,599.81 434.06,595.70 436.02,594.49 C436.58,594.14 436.73,593.37 436.36,592.78 C435.95,592.11 436.16,591.98 436.89,592.43 C437.55,592.84 438.79,594.93 439.65,597.09 C440.51,599.24 441.76,601.00 442.42,601.00 C443.08,601.00 445.08,602.21 446.87,603.70 C450.36,606.59 454.69,607.96 453.37,605.75 C452.80,604.80 452.96,604.76 454.06,605.61 C456.02,607.11 460.00,608.01 460.00,606.95 C460.00,606.57 458.72,605.67 456.97,604.79 C465.46,608.66 475.16,608.53 484.32,603.71 ZM 318.36 470.75 L 318.39 470.72 C319.32,469.51 320.08,468.36 320.51,467.57 C320.27,468.23 319.95,468.97 319.61,469.67 C316.88,475.23 312.05,485.54 311.04,488.00 C310.46,489.38 308.15,493.88 305.90,498.00 C303.64,502.12 301.18,507.22 300.42,509.32 C299.66,511.41 298.14,514.40 297.04,515.94 C295.95,517.48 293.75,522.23 292.15,526.54 C293.77,522.16 295.57,518.02 296.14,517.34 C296.70,516.65 297.35,515.06 297.57,513.80 C298.88,506.32 299.43,504.43 300.65,503.21 C301.30,502.55 301.88,501.24 302.03,500.12 C302.06,499.99 302.07,499.87 302.07,499.76 C302.11,498.52 302.98,496.15 303.99,494.50 C305.01,492.85 307.09,489.03 308.61,486.02 C311.45,480.39 313.56,477.06 318.02,471.20 C318.10,471.10 318.17,471.00 318.25,470.90 C318.29,470.85 318.33,470.80 318.36,470.75 ZM 201.75 525.88 C201.73,517.73 201.70,509.44 201.68,501.06 L 201.65 490.24 C201.25,353.49 201.10,300.02 202.13,275.62 C201.80,302.76 201.62,392.78 201.73,497.50 C201.73,507.18 201.74,516.65 201.75,525.88 ZM 326.54 621.89 C325.97,623.67 321.66,625.32 320.52,624.19 C320.24,623.90 320.04,620.25 320.08,616.08 C320.16,608.47 320.31,608.16 321.43,613.25 C321.84,615.08 322.68,616.00 323.95,616.00 C326.11,616.00 327.44,619.04 326.54,621.89 ZM 590.00 646.00 C592.72,645.62 595.74,644.76 598.91,643.52 C595.73,644.77 592.70,645.63 589.97,646.03 C583.80,646.92 575.44,647.14 568.81,646.74 C569.65,646.43 570.04,645.77 570.18,644.75 C570.45,642.87 571.04,642.54 573.82,642.76 C576.06,642.94 576.91,642.66 576.44,641.91 C575.96,641.13 576.48,641.01 578.12,641.51 C583.40,643.13 583.51,643.94 578.50,644.14 L 573.50 644.35 L 577.98 644.74 C580.45,644.96 582.71,645.54 583.01,646.02 C583.33,646.54 586.27,646.53 590.00,646.00 ZM 561.50 638.00 C561.50,640.14 555.28,639.97 553.29,637.77 C551.87,636.20 551.88,635.98 553.36,635.41 C554.26,635.07 555.79,635.15 556.75,635.59 C557.71,636.03 559.17,636.41 560.00,636.44 C560.83,636.48 561.50,637.18 561.50,638.00 ZM 546.86 676.09 C548.55,677.45 550.69,677.98 554.36,677.91 L 559.50 677.83 L 552.50 675.58 C548.65,674.35 545.28,673.53 545.00,673.76 C544.72,673.98 545.56,675.03 546.86,676.09 ZM 312.42 519.39 C309.60,520.47 309.02,520.04 310.11,517.67 C310.69,516.38 311.81,515.33 312.58,515.33 C314.52,515.33 314.38,518.64 312.42,519.39 ZM 341.00 684.11 C341.00,685.15 341.67,686.00 342.50,686.00 C343.43,686.00 344.00,685.06 344.00,683.53 C344.00,681.75 343.58,681.22 342.50,681.64 C341.67,681.95 341.00,683.07 341.00,684.11 ZM 580.73 640.28 C583.30,640.67 583.32,640.71 581.00,640.78 C579.62,640.82 577.15,639.99 575.50,638.93 C573.48,637.64 573.05,637.01 574.19,637.01 C575.12,637.00 576.16,637.46 576.51,638.02 C576.86,638.58 577.63,638.73 578.22,638.36 C578.85,637.98 579.02,638.15 578.64,638.78 C578.23,639.43 579.06,640.03 580.73,640.28 ZM 198.60 380.78 C198.86,317.51 199.25,269.15 199.74,264.20 C199.74,264.19 199.75,264.19 199.75,264.18 C199.25,269.63 198.84,329.86 198.59,404.49 C198.59,396.13 198.60,388.23 198.60,380.78 ZM 628.28 662.36 C631.47,659.73 634.78,656.70 637.19,654.20 C635.00,656.72 633.02,659.38 632.68,660.31 C632.31,661.31 631.53,661.83 630.93,661.46 C630.46,661.17 629.37,661.56 628.28,662.36 ZM 634.53 661.19 C634.83,661.50 634.28,662.06 633.29,662.44 C631.87,662.98 631.75,662.86 632.73,661.88 C633.41,661.19 634.22,660.89 634.53,661.19 ZM 640.55 650.04 C641.37,648.61 641.93,647.00 642.24,645.33 C642.20,645.89 642.16,646.50 642.12,647.14 C642.08,647.63 641.48,648.72 640.55,650.04 ZM 315.73 325.21 C317.47,323.83 318.79,322.88 319.19,322.74 C319.33,322.69 319.46,322.63 319.57,322.56 C316.74,324.46 313.76,326.82 310.23,329.87 C310.07,330.00 309.92,330.13 309.77,330.26 C312.07,328.24 314.10,326.52 315.73,325.21 ZM 455.95 604.30 C455.89,604.27 455.82,604.24 455.75,604.21 C452.64,602.83 449.43,600.38 446.50,597.27 C449.36,600.24 452.55,602.60 455.95,604.30 ZM 731.03 812.61 C722.74,813.52 712.91,813.99 700.50,814.19 C711.15,814.02 720.13,813.62 727.97,812.86 C729.03,812.78 730.05,812.70 731.03,812.61 ZM 642.24 638.97 C641.61,635.44 639.95,632.16 637.35,630.06 C638.95,631.21 640.16,632.89 641.18,635.22 C641.73,636.46 642.07,637.57 642.24,638.97 ZM 776.93 376.63 C776.80,377.28 776.66,377.70 776.50,377.86 C776.37,377.99 775.99,378.10 775.39,378.18 C776.35,377.88 776.68,377.39 776.93,376.63 ZM 780.58 793.88 C782.79,792.19 785.19,790.22 787.47,788.26 C785.17,790.31 782.91,792.17 780.58,793.88 ZM 219.91 216.53 C218.18,218.54 216.93,220.28 215.92,222.01 C216.40,221.16 216.92,220.31 217.47,219.50 C217.90,218.87 218.77,217.82 219.91,216.53 ZM 212.12 231.26 C211.15,231.70 209.88,233.41 208.55,235.80 C209.92,233.30 211.20,231.56 212.12,231.26 ZM 746.94 344.61 L 747.00 344.76 C747.63,346.42 748.07,347.94 748.38,349.82 C748.07,348.04 747.61,346.49 746.94,344.61 ZM 305.27 334.75 C304.53,335.76 304.34,336.49 304.55,337.14 C305.04,338.71 304.92,340.22 304.37,341.24 C304.92,340.21 305.04,338.70 304.54,337.12 C304.34,336.49 304.51,335.80 305.19,334.83 ZM 200.08 263.42 C200.60,262.50 201.00,260.52 201.00,258.65 C201.00,257.62 201.16,256.35 201.44,254.91 C201.16,256.37 201.00,257.67 201.00,258.74 C201.00,260.57 200.60,262.52 200.08,263.43 ZM 292.12 526.62 C290.51,530.95 288.48,535.84 287.61,537.49 C288.48,535.83 290.52,530.91 292.15,526.54 C292.14,526.57 292.13,526.60 292.12,526.62 Z" fill="rgb(252,189,4)"/>
<path d="M 764.50 378.45 C767.55,378.58 769.66,378.71 769.75,378.79 C769.83,378.86 769.90,378.77 769.95,378.57 C772.80,378.59 774.42,378.49 775.39,378.18 C775.99,378.10 776.37,377.99 776.50,377.86 C776.66,377.70 776.80,377.28 776.93,376.63 C776.99,376.44 777.05,376.23 777.11,376.00 C777.26,375.45 777.39,374.71 777.50,373.86 L 777.50 378.01 L 781.00 379.05 C782.92,379.62 786.30,380.59 788.50,381.21 C794.09,382.79 803.80,388.30 808.20,392.38 C813.20,397.01 818.85,406.06 821.35,413.43 C823.34,419.31 823.42,421.90 823.75,496.75 C823.99,550.06 823.77,574.00 823.05,574.00 C822.47,574.00 821.99,572.54 821.98,570.75 C821.98,568.96 821.33,565.47 820.55,563.00 L 819.13 558.50 L 819.07 563.08 C819.02,566.22 818.58,567.67 817.66,567.67 C816.20,567.67 815.52,547.32 814.40,470.00 C813.80,428.59 812.95,419.93 808.51,410.25 C805.70,404.10 796.30,394.36 792.22,393.35 C790.72,392.98 788.55,392.07 787.39,391.32 C782.92,388.43 757.91,387.92 634.50,388.24 C520.50,388.53 511.07,388.68 505.56,390.31 C495.90,393.18 490.95,395.76 485.54,400.77 C460.20,424.21 458.94,424.72 423.50,425.94 C399.43,426.76 390.38,428.02 382.00,431.70 C373.22,435.56 363.45,440.31 363.00,440.94 C362.73,441.32 360.25,443.13 357.50,444.97 C351.32,449.09 337.76,462.62 332.41,470.00 C323.82,481.86 311.05,504.83 299.62,528.99 C298.46,531.47 296.52,535.07 295.32,536.99 C294.13,538.92 292.68,542.31 292.10,544.53 C291.52,546.74 289.91,550.09 288.52,551.97 C287.13,553.85 286.00,556.40 286.00,557.64 C286.00,558.87 285.57,560.15 285.04,560.48 C284.51,560.80 283.30,563.56 282.34,566.60 C281.38,569.65 279.61,573.12 278.40,574.33 C277.19,575.53 275.71,578.32 275.11,580.51 C274.51,582.70 272.52,587.42 270.68,591.00 C268.84,594.58 267.00,598.82 266.60,600.44 C266.20,602.06 265.07,604.53 264.10,605.94 C263.13,607.35 261.58,610.42 260.67,612.77 C258.51,618.29 254.27,625.00 252.93,625.00 C252.35,625.00 252.20,624.44 252.59,623.75 C253.11,622.83 252.98,622.79 252.10,623.60 C252.04,623.66 251.98,623.71 251.92,623.77 C254.11,618.48 256.50,612.69 258.24,608.50 C260.99,601.90 264.12,594.25 265.20,591.50 C265.70,590.22 266.28,588.76 266.83,587.40 C266.56,588.35 266.47,589.00 266.65,589.00 C268.05,589.00 271.00,586.77 270.98,585.71 C270.98,584.95 270.61,585.06 270.00,586.00 C269.47,586.83 269.02,587.03 269.02,586.45 C269.01,585.87 269.54,584.86 270.20,584.20 C271.13,583.27 271.07,583.00 269.92,583.00 C269.32,583.00 268.54,583.72 267.91,584.75 C268.11,584.27 268.29,583.84 268.43,583.50 C269.13,581.85 270.64,578.25 271.77,575.50 C272.90,572.75 276.57,564.16 279.92,556.41 C283.26,548.67 286.00,541.92 286.01,541.41 C286.01,540.91 286.73,539.15 287.60,537.50 L 287.60 537.49 L 287.61 537.49 C288.48,535.84 290.51,530.95 292.12,526.62 L 292.15 526.54 C293.75,522.23 295.95,517.48 297.04,515.94 C298.14,514.40 299.66,511.41 300.42,509.32 C301.18,507.22 303.64,502.12 305.90,498.00 C308.15,493.88 310.46,489.38 311.04,488.00 C311.47,486.95 312.61,484.45 313.98,481.50 C313.64,482.42 313.54,482.99 313.75,482.98 C315.08,482.95 320.95,471.09 319.95,470.47 C319.71,470.32 319.44,470.35 319.19,470.52 C319.34,470.23 319.48,469.94 319.61,469.67 C319.95,468.97 320.27,468.23 320.51,467.57 L 320.53 467.53 C320.83,467.00 321.00,466.61 321.00,466.43 C321.00,466.36 320.98,466.33 320.94,466.33 C320.98,466.19 321.00,466.07 321.00,465.98 C321.00,465.24 322.46,463.20 324.25,461.43 C326.04,459.66 329.66,455.94 332.29,453.17 C340.57,444.45 348.83,438.23 364.00,429.30 L 369.50 426.06 L 365.87 426.03 C365.47,426.03 365.06,426.05 364.65,426.10 C363.01,426.30 361.56,426.82 361.05,427.44 C361.57,426.81 363.06,426.28 364.65,426.10 C365.14,426.03 365.66,426.00 366.16,426.00 C368.32,426.00 371.90,425.07 374.12,423.94 C382.89,419.46 405.85,415.35 423.37,415.01 C412.96,415.58 413.29,415.61 429.82,415.80 L 447.13 416.00 L 454.48 412.61 C459.05,410.49 464.22,407.00 468.16,403.36 C471.65,400.14 476.49,395.81 478.93,393.75 C481.37,391.69 482.86,390.00 482.24,390.00 C482.21,390.00 482.18,390.00 482.14,390.01 C482.43,389.86 482.72,389.71 483.00,389.58 C484.92,388.67 487.74,387.24 489.26,386.41 C490.77,385.57 495.83,383.56 500.50,381.94 L 509.00 379.00 L 627.06 379.00 C706.54,379.00 745.76,378.66 747.07,377.96 C748.81,377.03 749.00,375.79 749.00,363.98 L 749.00 377.93 L 759.25 378.28 C761.22,378.34 762.96,378.40 764.50,378.45 ZM 771.56 325.16 C772.96,329.12 772.22,330.08 769.70,327.56 C768.83,326.69 768.46,325.05 768.76,323.45 C769.42,320.04 767.63,318.93 763.81,320.38 C761.23,321.35 760.66,321.24 759.47,319.50 C756.09,314.54 753.95,312.11 745.78,303.96 C736.06,294.26 726.34,288.44 715.00,285.54 C711.42,284.63 706.87,283.46 704.88,282.94 C702.74,282.38 660.02,282.00 600.12,282.00 C503.18,282.00 498.66,281.92 491.73,280.06 C487.75,278.99 483.54,277.76 482.36,277.31 C478.00,275.66 467.38,267.55 463.52,262.92 C459.62,258.24 458.19,255.77 446.50,233.50 C440.23,221.55 437.48,218.11 428.82,211.39 C421.95,206.07 416.76,203.76 407.50,201.90 C397.77,199.95 255.90,199.81 255.25,201.75 C254.77,203.19 252.00,203.46 252.00,202.07 C252.00,201.55 251.03,200.83 249.84,200.45 C248.19,199.92 247.04,200.49 244.96,202.88 C243.46,204.60 241.52,206.00 240.64,206.00 C239.76,206.00 238.31,207.12 237.41,208.50 C236.49,209.90 234.81,211.00 233.58,211.00 C232.38,211.00 230.94,211.34 230.39,211.75 C229.83,212.16 231.66,210.28 234.44,207.58 C237.65,204.45 242.43,201.29 247.54,198.93 C265.89,190.44 270.03,190.04 338.50,190.04 C381.86,190.04 399.12,190.17 409.54,192.11 C408.93,192.19 409.37,192.51 411.00,193.42 C412.38,194.18 414.85,194.81 416.50,194.83 L 418.70 194.84 C420.51,195.61 422.31,196.50 424.32,197.53 C435.36,203.20 442.16,208.79 448.97,217.78 C453.35,223.56 462.00,239.16 462.00,241.27 C462.00,241.66 464.59,245.50 467.75,249.81 C475.98,261.02 480.25,264.43 492.00,269.21 L 497.50 271.44 L 600.00 272.13 C659.15,272.53 705.04,273.24 708.50,273.81 C716.29,275.09 725.99,278.35 733.49,282.21 C741.32,286.24 753.87,296.05 756.88,300.49 C758.19,302.42 759.61,304.00 760.03,304.00 C761.48,304.00 768.90,317.64 771.56,325.16 ZM 241.12 649.42 C241.19,649.25 241.27,649.08 241.35,648.91 C242.71,645.94 245.94,638.33 248.54,632.00 C249.23,630.32 250.04,628.33 250.92,626.20 C250.77,627.54 250.96,629.30 251.48,631.60 C252.06,634.12 251.71,635.21 249.59,637.49 C248.17,639.03 247.00,641.38 247.00,642.70 C247.00,644.02 245.88,646.76 244.50,648.79 C242.15,652.24 242.00,652.31 241.97,649.98 C241.96,648.44 241.80,648.15 241.12,649.42 ZM 568.08 646.69 C564.99,646.48 562.32,646.13 560.50,645.64 C557.18,644.76 553.14,643.12 549.26,641.17 C552.02,642.47 554.58,643.35 556.36,643.52 C562.85,644.13 568.00,645.29 568.00,646.13 C568.00,646.36 568.03,646.55 568.08,646.69 ZM 646.90 578.30 C646.49,576.72 646.18,575.13 646.00,573.54 C645.61,570.22 644.96,566.71 644.54,565.75 C644.11,564.76 644.21,564.00 644.77,564.00 C645.30,564.00 645.95,561.83 646.21,559.19 C646.31,558.10 646.56,556.86 646.91,555.53 C646.53,558.02 646.50,561.19 646.50,567.00 C646.50,572.63 646.55,575.85 646.90,578.30 ZM 693.53 604.09 C699.05,601.65 703.75,597.83 707.44,592.88 C705.83,595.22 704.14,597.18 702.57,598.46 C697.08,602.90 693.27,604.72 685.80,606.49 C678.68,608.16 678.27,608.18 675.50,607.03 C674.82,606.75 673.37,606.20 671.75,605.60 C677.90,607.15 688.15,606.47 693.53,604.09 ZM 235.74 663.17 C236.25,661.33 237.73,657.42 239.32,653.59 C238.90,654.99 238.79,656.15 239.10,656.55 C240.00,657.72 239.15,662.20 238.14,661.59 C237.79,661.38 236.92,661.84 236.21,662.60 C236.03,662.80 235.87,662.99 235.74,663.17 ZM 642.24 638.97 C642.07,637.57 641.73,636.46 641.18,635.22 C641.14,635.11 641.09,635.00 641.04,634.90 C641.86,636.25 642.56,637.66 642.93,638.79 C644.13,642.42 644.08,643.31 642.52,646.59 C642.38,646.90 642.20,647.23 642.00,647.59 C642.07,647.41 642.11,647.26 642.12,647.14 C642.16,646.50 642.20,645.89 642.24,645.33 C642.62,643.25 642.61,641.07 642.24,638.97 ZM 600.24 676.91 C600.15,677.16 600.10,677.36 600.10,677.51 C600.03,677.44 600.00,677.34 600.00,677.23 C600.00,675.85 601.65,674.71 604.57,674.02 C604.69,674.01 604.81,674.00 604.90,674.00 C605.35,674.00 606.07,673.86 606.98,673.60 C607.35,673.56 607.68,673.54 607.97,673.53 C607.45,673.76 606.79,674.09 605.98,674.51 C604.37,675.34 602.54,675.90 601.91,675.76 C601.27,675.62 600.52,676.13 600.24,676.91 ZM 432.81 413.88 C431.95,413.19 433.57,412.96 446.78,411.54 C439.22,412.39 433.25,413.40 432.81,413.88 ZM 777.47 360.69 C777.45,360.62 777.44,360.56 777.42,360.50 C777.30,355.57 777.02,350.49 776.59,346.59 C777.07,350.58 777.37,355.37 777.47,360.69 ZM 636.28 629.33 C634.69,628.41 632.71,628.04 629.53,628.04 C633.26,628.02 634.72,628.16 636.28,629.33 ZM 653.78 540.50 C654.81,538.96 655.86,537.64 656.85,536.67 C657.46,536.08 658.28,535.40 659.20,534.69 C657.14,536.38 655.37,538.28 653.78,540.50 ZM 233.67 667.76 C233.80,667.46 233.97,667.11 234.17,666.75 C234.69,665.79 235.21,664.70 235.48,664.00 C235.79,664.00 235.31,665.12 234.41,666.50 C234.11,666.96 233.86,667.39 233.67,667.76 ZM 666.57 603.62 C663.68,602.26 660.89,600.28 658.36,597.85 C660.90,600.20 663.69,602.18 666.57,603.62 ZM 609.87 674.26 C609.66,674.71 608.63,675.30 606.75,675.84 C608.22,675.42 609.47,674.77 609.87,674.26 ZM 298.56 465.45 C298.64,465.35 298.73,465.14 298.84,464.83 C298.78,465.57 298.71,465.79 298.56,465.45 ZM 315.97 477.26 C316.52,476.09 317.07,474.93 317.60,473.82 C317.15,474.83 316.58,476.05 315.97,477.26 ZM 636.16 655.41 C636.49,655.01 636.84,654.60 637.19,654.20 C637.36,654.02 637.53,653.84 637.69,653.67 C637.47,653.92 637.26,654.17 637.05,654.40 C636.75,654.73 636.45,655.07 636.16,655.41 ZM 448.55 411.35 C450.91,411.07 452.48,410.74 453.77,410.17 C452.46,410.76 450.87,411.09 448.55,411.35 ZM 299.69 462.29 C299.80,462.09 299.88,462.04 299.90,462.20 C299.90,462.24 299.92,462.26 299.94,462.28 C299.84,462.30 299.76,462.30 299.69,462.29 ZM 539.17 635.03 C538.76,634.72 538.37,634.41 538.00,634.10 C535.67,632.14 533.94,630.80 532.41,629.88 C533.94,630.80 535.67,632.14 538.00,634.09 C538.38,634.41 538.77,634.72 539.17,635.03 ZM 477.12 393.42 C476.06,394.26 474.89,395.24 473.63,396.32 C474.93,395.19 476.08,394.23 477.12,393.42 ZM 775.98 342.38 C775.80,341.45 775.63,340.63 775.47,339.90 C775.65,340.66 775.82,341.48 775.98,342.38 ZM 569.87 645.81 C570.02,645.50 570.13,645.14 570.18,644.75 C570.12,645.16 570.02,645.52 569.87,645.81 ZM 601.97 677.41 C601.89,677.44 601.82,677.47 601.75,677.50 C601.70,677.52 601.66,677.53 601.61,677.55 C601.72,677.51 601.84,677.46 601.97,677.41 Z" fill="rgb(253,216,38)"/>
<path d="M 241.12 649.42 C241.80,648.15 241.96,648.44 241.97,649.98 C242.00,652.31 242.15,652.24 244.50,648.79 C245.88,646.76 247.00,644.02 247.00,642.70 C247.00,641.38 248.17,639.03 249.59,637.49 C251.71,635.21 252.06,634.12 251.48,631.60 C250.96,629.30 250.77,627.54 250.92,626.20 C251.25,625.41 251.58,624.60 251.92,623.77 C251.98,623.71 252.04,623.66 252.10,623.60 C252.98,622.79 253.11,622.83 252.59,623.75 C252.20,624.44 252.35,625.00 252.93,625.00 C254.27,625.00 258.51,618.29 260.67,612.77 C261.58,610.42 263.13,607.35 264.10,605.94 C265.07,604.53 266.20,602.06 266.60,600.44 C267.00,598.82 268.84,594.58 270.68,591.00 C272.52,587.42 274.51,582.70 275.11,580.51 C275.71,578.32 277.19,575.53 278.40,574.33 C279.61,573.12 281.38,569.65 282.34,566.60 C283.30,563.56 284.51,560.80 285.04,560.48 C285.57,560.15 286.00,558.87 286.00,557.64 C286.00,556.40 287.13,553.85 288.52,551.97 C289.91,550.09 291.52,546.74 292.10,544.53 C292.68,542.31 294.13,538.92 295.32,536.99 C296.52,535.07 298.46,531.47 299.62,528.99 C311.05,504.83 323.82,481.86 332.41,470.00 C337.76,462.62 351.32,449.09 357.50,444.97 C360.25,443.13 362.73,441.32 363.00,440.94 C363.45,440.31 373.22,435.56 382.00,431.70 C390.38,428.02 399.43,426.76 423.50,425.94 C458.94,424.72 460.20,424.21 485.54,400.77 C490.95,395.76 495.90,393.18 505.56,390.31 C511.07,388.68 520.50,388.53 634.50,388.24 C757.91,387.92 782.92,388.43 787.39,391.32 C788.55,392.07 790.72,392.98 792.22,393.35 C796.30,394.36 805.70,404.10 808.51,410.25 C812.95,419.93 813.80,428.59 814.40,470.00 C815.52,547.32 816.20,567.67 817.66,567.67 C818.58,567.67 819.02,566.22 819.07,563.08 L 819.13 558.50 L 820.55 563.00 C821.33,565.47 821.98,568.96 821.98,570.75 C821.99,572.54 822.47,574.00 823.05,574.00 C823.23,574.00 823.38,572.45 823.50,569.26 C823.49,646.38 823.34,711.04 823.16,714.00 C822.92,717.82 821.57,726.30 820.52,731.27 C820.38,731.09 820.02,731.16 819.41,731.40 C818.26,731.84 817.94,731.60 818.33,730.58 C818.63,729.79 819.19,727.49 819.57,725.46 C820.24,721.93 820.17,721.81 817.88,722.52 C816.57,722.93 815.35,723.65 815.17,724.13 C814.98,724.61 814.20,725.00 813.42,725.00 C812.39,725.00 812.00,723.68 811.99,720.25 C811.99,717.19 811.28,714.43 810.00,712.50 C808.91,710.85 808.01,708.30 808.01,706.84 C808.00,704.68 808.37,704.28 810.00,704.71 C811.67,705.15 812.00,704.74 812.00,702.24 C812.00,699.26 809.92,696.42 808.66,697.68 C808.30,698.04 808.00,699.42 808.00,700.74 C808.00,704.33 804.65,703.28 804.00,699.49 C803.42,696.13 802.14,695.63 800.86,698.25 C800.39,699.21 799.62,700.79 799.15,701.75 C798.51,703.06 796.82,703.58 792.42,703.81 C786.32,704.13 785.04,704.97 785.02,708.73 C785.01,709.99 783.91,711.67 782.50,712.59 C781.12,713.49 780.00,714.99 780.00,715.93 C780.00,718.18 776.51,721.83 773.68,722.54 C770.57,723.33 765.03,721.22 767.00,720.00 C769.26,718.60 767.86,718.15 763.50,718.87 C761.30,719.24 759.63,719.98 759.79,720.52 C759.95,721.06 758.62,721.72 756.83,722.00 C754.43,722.37 753.40,723.15 752.89,725.00 C752.22,727.43 752.19,727.42 752.01,724.50 L 751.82 721.50 L 750.85 724.86 C749.95,727.99 749.68,728.16 746.69,727.52 C740.00,726.06 730.93,725.81 729.45,727.04 C728.65,727.71 726.53,728.55 724.75,728.92 C722.67,729.34 721.38,730.27 721.14,731.50 C720.39,735.38 717.85,738.00 714.83,738.00 C713.21,738.00 712.13,737.60 712.43,737.11 C713.38,735.58 708.57,735.00 704.44,736.15 C699.56,737.51 688.54,737.76 680.25,736.70 C674.85,736.01 674.00,736.12 674.00,737.50 C674.00,738.91 675.78,739.06 688.88,738.80 C703.39,738.51 703.74,738.55 703.01,740.50 C702.07,743.04 695.02,744.17 682.51,743.78 C673.81,743.51 673.48,743.41 672.21,740.75 C670.75,737.70 667.87,737.27 660.53,738.97 C657.86,739.59 656.34,739.54 655.90,738.84 C655.45,738.11 655.04,738.13 654.57,738.89 C653.77,740.18 642.37,740.41 641.59,739.15 C640.92,738.07 627.70,736.80 625.58,737.61 C624.71,737.94 624.00,739.01 624.00,739.98 C624.00,743.76 621.73,744.24 607.47,743.48 C593.10,742.71 591.58,742.17 590.39,737.43 C590.06,736.09 589.27,735.01 588.64,735.01 C586.06,735.04 583.06,736.29 583.57,737.11 C583.87,737.60 582.82,738.00 581.24,738.00 C579.42,738.00 577.56,738.92 576.19,740.50 C574.35,742.61 573.14,743.00 568.44,743.00 C563.48,743.00 562.60,742.67 560.35,740.00 C558.81,738.17 556.78,736.95 555.16,736.87 C552.90,736.76 553.03,736.63 556.00,736.05 C559.34,735.40 559.22,735.33 553.54,734.54 C547.49,733.70 525.36,734.42 521.26,735.59 C520.03,735.94 519.29,736.66 519.61,737.18 C519.96,737.74 518.81,738.01 516.85,737.82 C515.01,737.64 513.59,737.00 513.71,736.38 C513.96,735.02 509.08,732.58 503.00,731.02 C500.52,730.38 497.08,729.43 495.35,728.90 C492.07,727.90 486.53,728.35 479.20,730.20 C475.18,731.22 474.73,731.11 472.10,728.59 C469.52,726.12 468.72,725.93 462.39,726.20 C456.35,726.46 455.38,726.78 454.51,728.75 C453.66,730.70 452.77,731.00 447.94,731.00 C443.27,731.00 441.96,730.59 440.00,728.50 C438.71,727.12 436.86,726.00 435.88,726.00 C434.91,726.00 433.85,725.57 433.53,725.04 C433.20,724.52 432.28,724.34 431.47,724.65 C430.66,724.96 430.00,724.72 430.00,724.11 C430.00,723.38 426.80,723.00 420.58,723.00 C415.40,723.00 410.45,722.73 409.58,722.39 C406.79,721.32 407.89,720.00 411.56,720.00 C413.68,720.00 414.87,719.60 414.50,719.00 C414.16,718.45 412.76,718.00 411.39,718.00 C409.68,718.00 408.38,717.07 407.20,715.00 C405.54,712.08 405.37,712.02 399.50,712.59 C396.20,712.91 391.49,712.71 389.02,712.14 C386.35,711.53 384.32,711.48 383.98,712.03 C383.67,712.53 382.11,712.60 380.46,712.16 C378.34,711.61 376.93,710.22 375.50,707.28 C374.00,704.19 372.80,703.06 370.71,702.75 C368.58,702.43 368.05,702.68 368.47,703.78 C368.89,704.87 368.59,705.01 367.26,704.37 C366.29,703.91 362.95,703.61 359.83,703.71 C354.30,703.89 354.13,703.82 352.96,700.70 C351.24,696.11 350.17,689.01 351.11,688.43 C351.55,688.16 351.74,687.39 351.54,686.72 C351.33,686.05 350.90,684.26 350.56,682.75 C350.07,680.50 349.42,680.00 346.98,680.00 C344.36,680.00 344.00,679.65 344.00,677.11 C344.00,674.79 343.46,674.08 341.26,673.53 C337.26,672.52 336.01,671.14 335.92,667.63 C335.84,664.37 335.58,664.67 334.58,669.20 C334.01,671.82 333.82,671.89 328.74,671.33 C325.86,671.01 322.97,670.25 322.33,669.63 C321.63,668.94 320.89,662.97 320.47,654.48 L 319.77 640.47 L 323.11 640.48 C326.72,640.50 327.68,638.86 326.60,634.54 C325.95,631.96 321.03,630.38 319.75,632.34 C317.98,635.07 316.91,630.35 317.51,622.50 C318.33,611.88 318.33,610.21 317.57,605.50 C316.89,601.31 318.33,597.46 319.75,599.66 C320.87,601.38 325.84,600.08 326.54,597.89 C327.43,595.08 326.12,592.00 324.04,592.00 C321.72,592.00 321.00,590.08 321.00,583.86 C321.00,579.36 319.65,567.88 318.46,562.32 C318.19,561.05 317.10,560.01 315.85,559.82 C313.58,559.48 313.23,558.99 310.45,552.25 C308.85,548.37 308.83,547.67 310.22,544.25 C312.38,538.92 314.00,533.61 314.00,531.86 C314.00,531.04 312.87,529.38 311.48,528.17 C309.57,526.51 309.12,525.39 309.59,523.49 C311.22,517.00 304.29,525.20 301.36,533.23 C300.18,536.46 298.55,539.87 297.73,540.80 C295.69,543.13 285.31,564.79 284.46,568.50 C284.07,570.15 283.21,572.40 282.53,573.50 C281.17,575.70 274.40,590.40 265.49,610.50 C254.45,635.40 250.80,643.53 248.46,648.50 C241.00,664.29 231.39,687.60 228.35,697.25 C227.52,699.86 226.46,702.00 225.98,702.00 C225.51,702.00 224.94,703.91 224.73,706.25 C224.39,710.04 224.34,709.90 224.22,705.00 C224.17,702.94 224.22,701.10 224.43,699.19 C224.50,698.68 224.57,698.17 224.65,697.66 C225.24,693.88 226.26,690.04 227.96,684.50 C229.14,680.65 230.16,676.94 230.22,676.25 C230.28,675.56 230.69,675.00 231.14,675.00 C231.58,675.00 231.70,674.38 231.41,673.63 C231.12,672.87 231.62,671.52 232.51,670.63 C233.41,669.73 233.87,669.00 233.54,669.00 C233.30,669.00 233.37,668.50 233.67,667.76 C233.86,667.39 234.11,666.96 234.41,666.50 C235.31,665.12 235.79,664.00 235.48,664.00 C235.56,663.80 235.62,663.62 235.65,663.50 C235.68,663.40 235.71,663.29 235.74,663.17 C235.87,662.99 236.03,662.80 236.21,662.60 C236.92,661.84 237.79,661.38 238.14,661.59 C239.15,662.20 240.00,657.72 239.10,656.55 C238.79,656.15 238.90,654.99 239.32,653.59 C239.91,652.15 240.53,650.73 241.12,649.42 ZM 213.46 229.79 C213.79,230.06 214.18,230.13 214.36,229.92 C214.56,229.69 217.74,225.74 221.43,221.14 C227.35,213.76 232.55,208.51 238.06,204.52 C236.71,205.52 235.49,206.55 234.44,207.58 C231.66,210.28 229.83,212.16 230.39,211.75 C230.94,211.34 232.38,211.00 233.58,211.00 C234.81,211.00 236.49,209.90 237.41,208.50 C238.31,207.12 239.76,206.00 240.64,206.00 C241.52,206.00 243.46,204.60 244.96,202.88 C247.04,200.49 248.19,199.92 249.84,200.45 C251.03,200.83 252.00,201.55 252.00,202.07 C252.00,203.46 254.77,203.19 255.25,201.75 C255.90,199.81 397.77,199.95 407.50,201.90 C416.76,203.76 421.95,206.07 428.82,211.39 C437.48,218.11 440.23,221.55 446.50,233.50 C458.19,255.77 459.62,258.24 463.52,262.92 C467.38,267.55 478.00,275.66 482.36,277.31 C483.54,277.76 487.75,278.99 491.73,280.06 C498.66,281.92 503.18,282.00 600.12,282.00 C660.02,282.00 702.74,282.38 704.88,282.94 C706.87,283.46 711.42,284.63 715.00,285.54 C726.34,288.44 736.06,294.26 745.78,303.96 C753.95,312.11 756.09,314.54 759.47,319.50 C760.66,321.24 761.23,321.35 763.81,320.38 C767.63,318.93 769.42,320.04 768.76,323.45 C768.46,325.05 768.83,326.69 769.70,327.56 C771.74,329.60 772.61,329.36 772.13,327.09 C773.57,331.32 774.70,335.66 775.54,340.21 C775.52,340.11 775.49,340.00 775.47,339.90 C774.65,336.30 773.93,334.95 772.81,334.66 C771.82,334.40 771.00,334.50 771.00,334.88 C771.00,335.25 769.93,335.65 768.63,335.76 C766.68,335.92 765.44,334.63 761.63,328.45 C759.08,324.32 757.00,320.57 757.00,320.11 C757.00,318.78 748.48,310.00 747.18,310.00 C746.53,310.00 746.00,310.34 746.00,310.75 C746.00,311.16 744.20,311.62 742.00,311.77 C739.80,311.92 738.00,311.65 738.00,311.16 C738.00,310.18 735.81,310.25 731.99,311.37 C729.26,312.16 719.84,310.06 714.77,307.53 C711.10,305.70 707.55,305.36 710.00,307.08 C711.08,307.84 710.39,307.91 707.50,307.35 C705.30,306.91 671.10,306.51 631.50,306.45 C410.12,306.12 354.39,305.40 351.27,302.81 C349.49,301.34 310.69,301.56 307.88,303.07 C306.73,303.68 302.13,304.39 297.65,304.64 C293.17,304.90 286.43,305.35 282.68,305.64 C275.04,306.24 272.37,304.92 271.81,300.25 C271.64,298.85 270.71,297.32 269.75,296.85 C268.79,296.38 267.21,295.62 266.25,295.15 C265.29,294.68 264.35,293.31 264.18,292.11 C263.95,290.61 262.94,289.74 260.95,289.34 C256.84,288.52 256.29,287.44 255.65,279.00 C254.71,266.71 254.05,264.15 251.75,263.81 C249.64,263.49 249.36,263.10 246.62,256.72 C244.44,251.63 244.35,227.76 246.50,224.00 C248.59,220.34 248.39,218.67 245.92,219.31 C244.28,219.74 243.98,219.50 244.52,218.18 C244.89,217.25 245.27,216.05 245.37,215.50 C245.77,213.33 247.33,211.86 251.82,209.44 C252.00,209.34 252.17,209.25 252.34,209.16 C254.28,208.11 255.36,207.52 255.29,207.33 C255.21,207.08 253.35,207.43 249.17,208.21 C248.89,208.27 248.59,208.32 248.28,208.38 C247.61,208.51 246.74,208.92 246.36,209.30 C245.98,209.69 244.87,210.00 243.89,210.00 C242.33,210.00 228.74,219.51 223.60,224.20 C222.55,225.15 221.37,225.73 220.96,225.48 C220.56,225.23 220.29,225.80 220.36,226.76 C220.46,228.00 219.78,228.49 218.00,228.46 C216.62,228.43 215.19,228.87 214.80,229.43 C214.14,230.40 213.66,230.39 213.46,229.79 ZM 590.00 646.00 C586.27,646.53 583.33,646.54 583.01,646.02 C582.71,645.54 580.45,644.96 577.98,644.74 L 573.50 644.35 L 578.50 644.14 C583.51,643.94 583.40,643.13 578.12,641.51 C576.48,641.01 575.96,641.13 576.44,641.91 C576.91,642.66 576.06,642.94 573.82,642.76 C571.04,642.54 570.45,642.87 570.18,644.75 C570.12,645.16 570.02,645.52 569.87,645.81 C569.65,646.25 569.31,646.55 568.81,646.74 C568.57,646.72 568.32,646.71 568.08,646.69 C568.03,646.55 568.00,646.36 568.00,646.13 C568.00,645.29 562.85,644.13 556.36,643.52 C554.58,643.35 552.02,642.47 549.26,641.17 C545.51,639.28 541.89,637.11 539.17,635.03 C538.77,634.72 538.38,634.41 538.00,634.09 C535.73,632.19 534.03,630.87 532.53,629.95 C532.49,629.93 532.45,629.90 532.41,629.88 C529.86,628.35 527.87,628.00 524.61,628.00 C520.73,628.00 519.51,628.55 516.04,631.85 C512.19,635.51 512.00,635.97 512.00,641.76 C512.00,645.87 512.19,647.46 513.74,649.84 C514.09,650.41 514.51,651.02 515.01,651.70 C517.06,654.48 517.80,656.38 517.32,657.64 C516.71,659.28 516.83,659.34 518.31,658.13 C519.31,657.32 520.00,657.19 520.00,657.82 C520.00,659.38 518.41,660.10 516.53,659.37 C515.53,658.99 515.12,658.12 515.50,657.15 C515.83,656.28 515.78,655.89 515.38,656.28 C514.21,657.46 511.00,653.88 511.00,651.38 C511.00,650.03 510.10,648.59 508.83,647.91 C507.03,646.95 506.43,647.06 505.35,648.54 C504.31,649.96 504.29,650.64 505.25,651.81 C505.93,652.62 506.33,654.36 506.16,655.69 C505.73,658.95 507.64,661.00 511.12,661.00 C512.71,661.00 514.00,661.19 514.00,661.42 C514.00,662.79 512.68,664.92 512.06,664.54 C511.66,664.29 511.33,664.80 511.33,665.66 C511.33,666.53 512.83,667.87 514.67,668.63 C516.50,669.40 518.00,670.62 518.00,671.33 C518.00,673.55 530.25,682.60 535.52,684.26 C538.26,685.13 544.55,686.14 549.50,686.49 C554.45,686.85 560.75,687.79 563.50,688.57 C568.30,689.94 584.12,689.83 594.00,688.37 C602.07,687.17 612.53,683.84 617.12,681.02 C619.82,679.36 622.49,678.00 623.05,678.00 C628.49,678.00 639.40,666.39 636.85,663.32 C635.94,662.23 636.41,662.07 639.36,662.44 C642.08,662.79 643.20,662.48 643.85,661.20 C644.82,659.33 644.27,656.87 642.66,655.82 C641.71,655.20 638.00,658.46 638.00,659.91 C638.00,660.92 633.91,663.15 631.13,663.65 C629.69,663.91 627.73,664.84 626.76,665.72 C624.04,668.18 624.68,665.65 627.43,663.07 C627.45,663.04 627.48,663.02 627.51,662.99 C627.77,662.78 628.02,662.57 628.28,662.36 C629.37,661.56 630.46,661.17 630.93,661.46 C631.53,661.83 632.31,661.31 632.68,660.31 C632.97,659.53 634.41,657.53 636.16,655.41 L 636.16 655.41 C636.45,655.07 636.75,654.73 637.05,654.40 C637.26,654.17 637.47,653.92 637.69,653.67 C638.48,652.82 639.15,652.05 639.66,651.38 C639.98,650.96 640.28,650.51 640.55,650.04 C641.25,649.04 641.77,648.17 642.00,647.59 C642.20,647.23 642.38,646.90 642.52,646.59 C644.08,643.31 644.13,642.42 642.93,638.79 C642.56,637.66 641.86,636.25 641.04,634.90 C640.05,632.73 638.87,631.15 637.35,630.06 C637.31,630.03 637.27,630.00 637.24,629.97 C636.93,629.73 636.62,629.52 636.28,629.33 C634.73,628.16 633.26,628.02 629.53,628.04 L 629.53 628.04 C629.39,628.04 629.25,628.04 629.12,628.04 C623.94,628.07 622.99,628.46 617.00,633.07 C611.15,637.57 604.78,641.21 598.91,643.52 C595.74,644.76 592.72,645.62 590.00,646.00 ZM 455.95 604.30 C456.29,604.47 456.63,604.63 456.97,604.79 C458.72,605.67 460.00,606.57 460.00,606.95 C460.00,608.01 456.02,607.11 454.06,605.61 C452.96,604.76 452.80,604.80 453.37,605.75 C454.69,607.96 450.36,606.59 446.87,603.70 C445.08,602.21 443.08,601.00 442.42,601.00 C441.76,601.00 440.51,599.24 439.65,597.09 C438.79,594.93 437.55,592.84 436.89,592.43 C436.16,591.98 435.95,592.11 436.36,592.78 C436.73,593.37 436.58,594.14 436.02,594.49 C434.06,595.70 435.02,599.81 438.00,603.00 C439.65,604.77 441.00,606.73 441.00,607.37 C441.00,608.01 443.29,610.10 446.10,612.02 C450.92,615.31 453.26,616.68 458.91,619.54 C461.55,620.88 477.24,620.39 480.18,618.87 C481.11,618.39 482.82,618.00 483.97,618.00 C487.76,618.00 493.45,614.30 496.25,610.02 C499.54,604.99 499.56,604.82 496.95,602.46 C494.52,600.26 492.26,599.77 491.35,601.24 C490.96,601.87 491.16,602.02 491.85,601.60 C492.48,601.20 493.00,601.33 493.00,601.87 C493.00,603.23 487.95,607.09 486.97,606.48 C486.53,606.21 485.02,606.42 483.62,606.95 C481.86,607.62 480.86,607.58 480.38,606.81 C479.96,606.13 480.14,605.97 480.85,606.40 C481.48,606.80 482.00,606.71 482.00,606.21 C482.00,605.71 484.16,603.96 486.79,602.32 C496.89,596.04 502.77,585.14 504.16,573.51 C505.78,560.46 501.71,546.50 491.36,537.04 C483.60,529.95 480.81,528.72 471.50,528.23 C464.93,527.88 462.43,528.21 457.50,530.07 C450.11,532.86 442.44,540.33 438.39,548.69 C435.77,554.09 435.57,555.38 435.54,567.00 C435.50,579.31 435.55,579.60 438.99,586.50 C441.08,590.68 443.62,594.28 446.50,597.27 C449.43,600.38 452.64,602.83 455.75,604.21 C455.82,604.24 455.89,604.27 455.95,604.30 ZM 646.90 578.30 C647.26,580.89 647.97,582.64 649.30,585.50 C651.47,590.14 654.65,594.40 658.36,597.85 L 658.36 597.85 C660.89,600.28 663.68,602.26 666.57,603.62 C668.05,604.36 669.55,604.97 671.06,605.41 C671.28,605.48 671.51,605.54 671.75,605.60 C673.37,606.20 674.82,606.75 675.50,607.03 C678.27,608.18 678.68,608.16 685.80,606.49 C693.27,604.72 697.08,602.90 702.57,598.46 C704.14,597.18 705.83,595.22 707.44,592.88 C710.63,588.59 713.06,583.46 714.61,577.63 C718.53,562.92 713.64,545.14 703.14,535.88 C695.04,528.74 691.77,527.51 681.00,527.50 C672.55,527.50 670.89,527.81 666.00,530.32 C663.41,531.65 661.17,533.07 659.19,534.69 C658.28,535.40 657.46,536.08 656.85,536.67 C655.86,537.64 654.81,538.96 653.78,540.50 C652.35,542.50 651.07,544.75 649.85,547.36 C648.17,550.94 647.33,552.84 646.91,555.53 C646.56,556.86 646.31,558.10 646.21,559.19 C645.95,561.83 645.30,564.00 644.77,564.00 C644.21,564.00 644.11,564.76 644.54,565.75 C644.96,566.71 645.61,570.22 646.00,573.54 C646.18,575.13 646.49,576.72 646.90,578.30 ZM 326.54 621.89 C327.44,619.04 326.11,616.00 323.95,616.00 C322.68,616.00 321.84,615.08 321.43,613.25 C320.31,608.16 320.16,608.47 320.08,616.08 C320.04,620.25 320.24,623.90 320.52,624.19 C321.66,625.32 325.97,623.67 326.54,621.89 ZM 561.50 638.00 C561.50,637.18 560.83,636.48 560.00,636.44 C559.17,636.41 557.71,636.03 556.75,635.59 C555.79,635.15 554.26,635.07 553.36,635.41 C551.88,635.98 551.87,636.20 553.29,637.77 C555.28,639.97 561.50,640.14 561.50,638.00 ZM 546.86 676.09 C545.56,675.03 544.72,673.98 545.00,673.76 C545.28,673.53 548.65,674.35 552.50,675.58 L 559.50 677.83 L 554.36 677.91 C550.69,677.98 548.55,677.45 546.86,676.09 ZM 313.75 482.98 C313.54,482.99 313.64,482.42 313.98,481.50 C314.61,480.15 315.29,478.70 315.97,477.25 C316.58,476.05 317.15,474.83 317.60,473.82 C318.16,472.64 318.70,471.52 319.19,470.52 C319.44,470.35 319.71,470.32 319.95,470.47 C320.95,471.09 315.08,482.95 313.75,482.98 ZM 600.24 676.91 C600.52,676.13 601.27,675.62 601.91,675.76 C602.54,675.90 604.37,675.34 605.98,674.51 C606.79,674.09 607.45,673.76 607.97,673.53 C609.44,673.48 610.09,673.80 609.87,674.26 C609.47,674.77 608.22,675.42 606.75,675.84 C605.09,676.32 603.03,677.00 601.97,677.41 C601.84,677.46 601.72,677.51 601.61,677.55 C600.91,677.81 600.32,677.78 600.10,677.51 C600.10,677.36 600.15,677.16 600.24,676.91 ZM 312.42 519.39 C314.38,518.64 314.52,515.33 312.58,515.33 C311.81,515.33 310.69,516.38 310.11,517.67 C309.02,520.04 309.60,520.47 312.42,519.39 ZM 266.65 589.00 C266.47,589.00 266.56,588.35 266.83,587.40 C267.22,586.43 267.60,585.52 267.91,584.75 C268.54,583.72 269.32,583.00 269.92,583.00 C271.07,583.00 271.13,583.27 270.20,584.20 C269.54,584.86 269.01,585.87 269.02,586.45 C269.02,587.03 269.47,586.83 270.00,586.00 C270.61,585.06 270.98,584.95 270.98,585.71 C271.00,586.77 268.05,589.00 266.65,589.00 ZM 341.00 684.11 C341.00,683.07 341.67,681.95 342.50,681.64 C343.58,681.22 344.00,681.75 344.00,683.53 C344.00,685.06 343.43,686.00 342.50,686.00 C341.67,686.00 341.00,685.15 341.00,684.11 ZM 580.73 640.28 C579.06,640.03 578.23,639.43 578.64,638.78 C579.02,638.15 578.85,637.98 578.22,638.36 C577.63,638.73 576.86,638.58 576.51,638.02 C576.16,637.46 575.12,637.00 574.19,637.01 C573.05,637.01 573.48,637.64 575.50,638.93 C577.15,639.99 579.62,640.82 581.00,640.78 C583.32,640.71 583.30,640.67 580.73,640.28 ZM 634.53 661.19 C634.22,660.89 633.41,661.19 632.73,661.88 C631.75,662.86 631.87,662.98 633.29,662.44 C634.28,662.06 634.83,661.50 634.53,661.19 ZM 800.90 387.10 C796.63,384.50 791.83,382.16 788.50,381.21 C792.00,382.21 796.68,384.48 800.90,387.10 ZM 819.48 735.03 C819.66,734.47 819.83,733.94 820.01,733.49 C819.81,734.25 819.64,734.78 819.51,734.98 C819.50,735.00 819.49,735.02 819.48,735.03 ZM 214.35 225.20 C214.78,224.19 215.31,223.10 215.92,222.01 C215.96,221.94 216.01,221.86 216.06,221.78 C215.40,222.94 214.82,224.12 214.35,225.20 ZM 777.47 360.69 C777.45,359.64 777.42,358.62 777.39,357.61 C777.43,358.63 777.45,359.66 777.47,360.71 Z" fill="rgb(254,206,9)"/>
<path d="M 294.32 814.30 C292.77,813.63 289.17,813.07 286.33,813.05 C280.47,812.99 270.91,810.76 264.75,808.00 C262.46,806.97 260.23,806.36 259.79,806.63 C259.36,806.90 259.00,806.51 259.00,805.78 C259.00,805.04 257.79,804.34 256.32,804.21 C254.84,804.09 252.55,803.21 251.21,802.25 C249.88,801.29 247.33,799.60 245.56,798.50 C236.80,793.08 233.96,790.76 231.25,786.80 C229.63,784.44 227.84,782.60 227.26,782.71 C226.68,782.83 225.64,781.56 224.95,779.88 C224.26,778.20 222.63,776.43 221.33,775.94 C220.04,775.44 218.42,773.82 217.74,772.32 C217.06,770.82 215.49,768.58 214.25,767.34 C213.01,766.10 212.00,764.16 212.00,763.03 C212.00,761.90 211.55,760.08 211.00,758.99 C210.45,757.89 209.50,756.03 208.89,754.83 C205.46,748.16 201.01,734.00 201.00,729.75 C201.00,724.10 202.66,723.43 203.51,728.75 C203.84,730.81 204.38,733.62 204.71,735.00 C205.04,736.38 205.42,738.03 205.56,738.67 C206.08,741.21 211.26,753.77 213.73,758.50 C226.68,783.33 249.64,801.59 278.00,809.62 L 287.50 812.31 L 483.36 813.10 C591.08,813.53 679.47,814.14 679.78,814.44 C680.37,815.03 598.85,815.34 411.82,815.44 C324.40,815.49 296.47,815.22 294.32,814.30 ZM 703.50 815.04 L 685.50 814.43 L 700.50 814.19 C733.90,813.66 748.66,811.15 764.85,803.25 C776.51,797.57 784.36,791.83 794.10,781.89 C801.48,774.36 813.00,757.26 813.00,753.85 C813.00,752.96 814.15,749.72 815.56,746.65 C816.97,743.57 818.34,739.83 818.61,738.35 C818.88,736.86 819.29,735.35 819.51,734.98 C820.34,733.65 822.83,719.31 823.16,714.00 C823.35,710.97 823.50,643.70 823.50,564.50 C823.50,426.78 823.42,420.24 821.63,414.50 C819.25,406.84 813.91,397.95 808.63,392.87 C803.98,388.40 794.51,382.91 788.50,381.21 C786.30,380.59 782.92,379.62 781.00,379.05 L 777.50 378.01 L 777.50 363.75 C777.50,341.61 773.40,325.40 763.61,308.75 C762.07,306.14 760.46,304.00 760.03,304.00 C759.61,304.00 758.19,302.42 756.88,300.49 C753.87,296.05 741.32,286.24 733.49,282.21 C725.99,278.35 716.29,275.09 708.50,273.81 C705.04,273.24 659.15,272.53 600.00,272.13 L 497.50 271.44 L 492.00 269.21 C480.25,264.43 475.98,261.02 467.75,249.81 C464.59,245.50 462.00,241.66 462.00,241.27 C462.00,239.16 453.35,223.56 448.97,217.78 C442.16,208.79 435.36,203.20 424.32,197.53 C410.34,190.36 406.69,190.04 338.50,190.04 C269.96,190.04 265.79,190.45 247.54,198.96 C238.02,203.41 230.59,209.72 221.43,221.14 C217.74,225.74 214.56,229.69 214.36,229.92 C214.16,230.15 213.71,230.05 213.37,229.70 C212.57,228.91 214.76,223.48 217.47,219.50 C218.59,217.85 222.80,213.23 226.81,209.23 C232.35,203.71 235.16,201.68 238.51,200.79 C241.65,199.95 243.00,199.04 243.21,197.60 C243.45,195.96 245.31,195.13 253.50,193.00 C259.00,191.58 264.47,189.88 265.64,189.23 C266.82,188.57 270.20,188.06 273.14,188.08 C276.09,188.10 303.92,188.02 335.00,187.90 C394.45,187.69 406.97,188.09 413.50,190.42 C415.70,191.20 419.08,192.17 421.00,192.55 C422.92,192.94 426.30,194.49 428.50,195.99 C430.70,197.50 433.51,199.04 434.75,199.43 C435.99,199.82 437.47,201.00 438.04,202.07 C438.61,203.13 439.48,204.00 439.99,204.00 C441.29,204.00 448.04,211.12 447.53,211.95 C447.30,212.32 448.34,213.36 449.85,214.25 C451.36,215.14 453.18,217.14 453.89,218.69 C454.60,220.23 456.02,223.07 457.06,225.00 C458.09,226.93 460.11,230.96 461.55,233.96 C462.98,236.96 465.47,240.91 467.08,242.74 C468.69,244.57 470.00,246.66 470.00,247.38 C470.00,248.10 470.86,249.47 471.91,250.42 C472.96,251.37 474.09,253.24 474.43,254.57 C474.76,255.91 475.46,257.00 475.97,257.00 C476.90,257.00 483.29,260.95 485.80,263.07 C486.51,263.67 488.54,264.61 490.30,265.14 C502.75,268.95 500.95,268.88 597.47,268.97 C649.06,269.02 691.74,269.34 692.29,269.68 C692.85,270.03 697.40,270.68 702.40,271.13 C716.20,272.36 720.21,273.01 723.65,274.57 C725.38,275.36 727.89,276.00 729.23,276.00 C730.56,276.00 732.66,277.08 733.90,278.39 C735.13,279.70 737.35,281.03 738.82,281.33 C740.32,281.64 745.24,285.47 750.00,290.04 C754.67,294.52 759.29,298.61 760.25,299.13 C761.21,299.65 762.00,300.78 762.00,301.64 C762.00,302.50 763.12,304.55 764.50,306.18 C765.88,307.82 767.00,309.68 767.00,310.33 C767.00,310.98 768.38,312.81 770.07,314.40 C772.42,316.62 773.00,317.87 772.54,319.70 C772.14,321.31 772.61,322.96 773.97,324.69 C775.09,326.11 776.00,328.62 776.00,330.26 C776.00,331.90 777.18,335.88 778.63,339.10 C780.94,344.26 781.13,345.45 780.21,349.22 C779.47,352.26 779.50,356.67 780.33,364.40 L 781.50 375.31 L 785.21 376.59 C789.67,378.13 795.94,380.82 798.00,382.09 C798.83,382.59 800.62,383.45 802.00,384.00 C805.81,385.52 807.50,386.63 807.52,387.61 C807.54,389.10 809.09,391.06 809.87,390.58 C810.98,389.89 812.24,391.10 815.50,396.00 C817.15,398.48 819.04,400.95 819.70,401.50 C820.36,402.05 821.69,405.42 822.66,409.00 C824.29,415.01 824.47,426.67 825.12,564.50 C825.50,646.45 825.90,714.85 826.00,716.50 C826.15,719.14 825.26,724.53 822.16,739.62 C821.70,741.89 820.34,745.11 819.16,746.78 C817.97,748.45 817.00,750.64 816.99,751.65 C816.99,752.67 816.09,754.85 815.00,756.50 C813.91,758.15 813.01,760.14 813.01,760.92 C813.00,761.70 812.37,763.05 811.60,763.92 C810.83,764.79 808.88,767.97 807.27,771.00 C805.67,774.03 803.37,776.94 802.17,777.49 C800.98,778.03 800.00,778.80 800.00,779.20 C800.00,780.36 787.52,792.59 785.57,793.33 C784.60,793.71 783.58,794.91 783.29,796.01 C783.00,797.10 782.48,798.04 782.13,798.08 C781.79,798.13 780.60,798.27 779.50,798.40 C778.40,798.53 776.07,800.07 774.33,801.82 C772.58,803.57 770.46,805.00 769.61,805.00 C768.75,805.00 765.51,806.12 762.40,807.50 C759.29,808.88 755.74,810.00 754.50,810.00 C753.26,810.00 751.70,810.65 751.04,811.45 C749.75,813.01 745.35,813.83 735.00,814.43 C731.42,814.64 726.92,815.00 725.00,815.23 C723.08,815.46 713.40,815.38 703.50,815.04 ZM 200.50 719.25 C200.18,717.19 199.54,713.92 199.07,712.00 C197.67,706.20 198.40,265.20 199.82,263.78 C200.47,263.13 201.00,260.86 201.00,258.74 C201.00,251.19 209.01,231.83 212.41,231.17 C213.83,230.89 213.62,231.80 211.17,236.67 C209.55,239.87 207.25,245.65 206.05,249.50 C200.92,266.00 200.99,262.03 201.68,501.06 C202.03,623.12 202.04,723.00 201.71,723.00 C201.37,723.00 200.83,721.31 200.50,719.25 ZM 297.70 462.50 C296.82,457.29 296.96,371.02 297.87,364.50 C298.51,359.83 298.61,359.69 299.34,362.42 C299.77,364.02 300.75,366.24 301.53,367.34 C302.85,369.23 302.97,369.24 303.62,367.54 C304.00,366.55 303.77,364.87 303.11,363.80 C301.84,361.77 302.54,357.60 304.00,358.50 C304.47,358.79 305.00,358.01 305.18,356.76 C305.47,354.68 306.01,354.50 311.92,354.50 L 318.34 354.50 L 318.42 369.50 C318.50,384.06 318.57,384.53 320.75,385.49 C321.99,386.03 323.00,387.08 323.00,387.83 C323.00,388.57 323.91,390.35 325.03,391.77 C326.73,393.93 326.96,395.25 326.45,399.92 C325.53,408.27 325.38,408.23 355.99,408.73 C373.05,409.00 383.49,408.75 387.50,407.97 C390.80,407.33 396.27,406.58 399.65,406.32 C404.49,405.94 406.29,405.32 408.08,403.42 C410.66,400.67 413.61,400.34 416.64,402.46 C418.50,403.76 419.14,403.71 422.58,401.96 C424.69,400.88 427.03,400.00 427.78,400.00 C428.52,400.00 430.64,398.85 432.47,397.45 C434.86,395.63 436.91,394.95 439.65,395.07 C441.77,395.15 446.87,394.48 451.00,393.57 C455.12,392.66 459.40,391.99 460.50,392.07 C463.84,392.32 464.11,392.08 462.94,389.89 C461.21,386.66 463.07,385.53 467.48,387.13 C470.77,388.32 471.27,388.28 472.13,386.73 C472.69,385.73 474.29,385.00 475.93,385.00 C477.48,385.00 479.34,384.30 480.05,383.44 C480.91,382.40 482.19,382.08 483.83,382.49 C485.66,382.95 487.44,382.30 490.61,380.03 C493.46,377.98 496.19,376.90 498.70,376.83 C500.79,376.77 503.68,376.12 505.12,375.40 C506.57,374.67 508.03,374.36 508.37,374.71 C508.72,375.05 509.00,374.70 509.01,373.92 C509.01,373.14 510.23,371.94 511.71,371.25 C515.17,369.64 516.53,369.66 515.18,371.29 C514.36,372.27 514.66,372.62 516.45,372.77 C517.74,372.87 519.34,372.29 520.02,371.48 C520.69,370.67 522.54,370.00 524.12,370.00 C525.71,370.00 527.00,369.64 527.00,369.21 C527.00,367.60 537.73,364.71 540.66,365.53 C545.26,366.82 597.33,365.13 601.82,363.55 C603.25,363.05 605.67,363.23 608.07,364.02 C612.22,365.39 615.57,364.81 624.26,361.24 C627.69,359.82 628.28,359.84 631.26,361.40 C634.20,362.95 638.71,363.08 680.50,362.80 C718.56,362.55 727.07,362.24 729.79,361.01 C732.71,359.70 733.20,359.70 734.06,361.01 C734.90,362.29 735.24,362.24 736.49,360.60 C737.71,359.00 738.18,358.91 739.53,360.03 C740.41,360.76 741.83,362.70 742.68,364.35 C744.07,367.03 744.33,367.16 745.22,365.56 C745.79,364.55 745.96,360.94 745.60,357.14 C745.27,353.49 744.99,349.44 744.99,348.15 C744.99,346.86 744.10,344.54 743.00,343.00 C741.90,341.45 741.00,339.88 741.00,339.49 C741.00,339.10 739.88,337.45 738.50,335.82 C737.12,334.18 736.00,332.22 736.00,331.45 C736.00,330.68 734.65,329.35 733.00,328.50 C731.35,327.65 730.00,326.46 730.00,325.86 C730.00,325.22 728.92,324.97 727.42,325.26 C725.48,325.63 724.60,325.23 723.87,323.63 C722.85,321.39 715.94,318.79 706.50,317.08 C703.64,316.56 627.29,316.16 527.74,316.15 C432.17,316.14 353.07,315.84 351.97,315.49 C350.13,314.91 345.48,315.91 340.50,317.96 C335.57,320.00 329.30,322.00 327.87,322.00 C327.01,322.00 325.57,322.82 324.66,323.82 C323.76,324.82 321.00,326.64 318.53,327.88 C313.66,330.31 313.10,330.89 312.47,334.16 C312.24,335.35 310.80,338.09 309.28,340.25 C304.70,346.73 302.08,352.31 302.04,355.69 C302.02,357.45 301.55,359.16 300.99,359.50 C299.10,360.68 298.80,357.04 300.41,352.32 C301.48,349.16 301.68,347.28 301.01,346.61 C299.20,344.80 299.82,342.08 301.95,342.49 C304.16,342.92 305.50,340.15 304.55,337.14 C304.10,335.75 305.51,333.94 310.23,329.87 C318.62,322.62 323.94,319.30 331.33,316.68 L 337.50 314.50 L 523.84 314.23 C708.60,313.97 710.24,313.99 717.00,316.00 C730.84,320.12 741.43,329.94 746.47,343.32 C748.72,349.30 749.00,351.54 749.00,363.49 C749.00,375.75 748.83,377.02 747.07,377.96 C745.76,378.66 706.54,379.00 627.06,379.00 L 509.00 379.00 L 500.50 381.94 C495.83,383.56 490.77,385.57 489.26,386.41 C487.74,387.24 484.92,388.67 483.00,389.58 C479.57,391.20 475.73,394.24 467.27,402.05 C464.71,404.41 462.45,405.73 461.54,405.38 C460.66,405.04 458.83,406.02 457.07,407.78 C454.64,410.21 452.95,410.88 447.80,411.43 C432.34,413.09 431.72,413.21 433.11,414.09 C433.97,414.63 431.05,414.98 425.46,414.98 C407.72,415.01 383.25,419.28 374.12,423.94 C371.90,425.07 368.32,426.00 366.16,426.00 C363.97,426.00 361.72,426.64 361.05,427.44 C360.39,428.23 359.25,428.65 358.50,428.36 C357.76,428.08 356.68,428.73 356.10,429.82 C355.11,431.67 346.17,434.73 343.34,434.18 C342.27,433.97 335.11,437.67 334.00,439.01 C333.73,439.35 330.58,441.31 327.00,443.38 C321.23,446.72 317.07,449.51 307.41,456.50 C305.89,457.60 303.60,459.49 302.32,460.70 C301.04,461.92 299.96,462.59 299.90,462.20 C299.85,461.82 299.48,462.62 299.09,464.00 C298.44,466.27 298.31,466.14 297.70,462.50 ZM 305.00 380.00 C305.00,379.45 304.33,379.00 303.50,379.00 C302.67,379.00 302.00,379.45 302.00,380.00 C302.00,380.55 302.67,381.00 303.50,381.00 C304.33,381.00 305.00,380.55 305.00,380.00 Z" fill="rgb(252,249,237)"/>
</g>
</svg>